<svg width="443" height="587" viewBox="0 0 443 587" fill="none" xmlns="http://www.w3.org/2000/svg"><g clip-path="url(#clip0)"><path fill-rule="evenodd" clip-rule="evenodd" d="M253.631 585.698a14.877 14.877 0 01-2.597-3.131c-16.478-26.688-31.219-62.898-8.574-102.363 11.613-20.238 53.521-76.749 133.819-20.613 14.548 11.232 24.696 21.515 31.437 30.888 5.061-9.308 9.415-19.285 12.96-29.931a243.873 243.873 0 006.146-21.821c-10.651-6.676-24.317-13.405-41.759-19.989-65.926-21.013-107.28-6.902-133.509 14.534-27.153 22.192-40.092 53.877-45.244 70.53-9.527 30.794-6.816 56.074 1.706 77.208 15.148 3.541 30.417 5.172 45.615 4.688zm-60.396-8.759c-6.931-21.846-8.06-47.24 1.082-76.789 10.875-35.153 55.531-137.768 194.902-93.17 16.014 6.028 29.312 12.322 40.262 18.78a266.022 266.022 0 003.803-34.015c-8.105-5.093-16.964-10.377-26.632-15.863-35.696-20.257-68.483-25.194-97.825-21.049-29.55 4.176-56.49 17.698-79.94 35.725-23.453 18.03-43.024 40.273-57.687 61.154-14.767 21.029-24.047 39.942-27.44 50.964-5.155 16.747-8.341 31.789-9.886 45.424 19.137 12.636 39.081 22.414 59.361 28.839zm-70.96-36.918c1.841-12.634 4.949-26.239 9.486-40.979 15.609-50.709 129.209-220.179 281.121-133.974a735.541 735.541 0 0120.706 12.18c-.238-44.635-11.293-90.175-33.376-130.185-35.074-63.547-96.644-94.799-158.112-110.062-62.147-15.432-126.714-15.155-173.232 27.787C18.663 211.134-14.3 284.737-3.328 363.565c10.58 76.018 66.862 132.876 124.286 175.484.438.325.877.649 1.317.972zm278.333-37.606c-5.314-8.869-14.973-19.759-31.773-32.76-37.253-25.96-63.12-24.472-80.211-16.971-18.301 8.032-29.986 24.427-35.307 33.699-19.099 33.286-7.422 64.022 8.379 89.613.488.792 3.632 3.636 15.192 3.94 5.721.15 12.355-.367 19.56-1.42a209.192 209.192 0 0014.016-4.755 55.34 55.34 0 01-9.938-7.409c-21.187-19.824-22.947-52.128-3.933-72.153 19.015-20.025 51.605-20.188 72.792-.363 8.578 8.026 13.972 18.098 16.091 28.573a175.345 175.345 0 0015.132-19.994zm-74.467 64.633c17.412-8.348 33.581-19.221 47.762-32.622.556-11.1-3.74-22.743-13.126-31.525-16.576-15.511-41.191-14.762-55.055-.161-13.865 14.601-13.164 39.037 3.412 54.547 5.092 4.765 10.943 7.995 17.007 9.761z" fill="#E95A4A"/><path fill-rule="evenodd" clip-rule="evenodd" d="M142.153 3.921c1.991.144 3.981.33 5.967.558 10.032 1.154 19.641 3.715 28.746 7.507 2.148 7.306 3.467 15.186 3.773 23.698.208 5.76-1.237 16.17-5.248 28.26-3.976 11.987-10.3 25.093-19.422 36.412-9.095 11.286-20.866 20.678-35.824 25.622-14.918 4.932-33.592 5.636-56.864-1.395-21.228-6.413-37.395-12.852-49.632-19.136a145.281 145.281 0 013.965-14.736c9.587 7.192 24.91 13.28 48.537 17.024 83.463 9.413 88.503-47.685 87.843-66.816-.509-14.789-5.052-26.928-11.841-36.998zm-9.335-.357c7.957 9.983 13.339 22.238 13.869 37.606.31 9.002-.814 25.995-10.919 39.476-9.619 12.833-28.803 24.297-68.635 19.842-24.92-3.968-39.057-10.41-46.925-17.065a144.236 144.236 0 0112.386-24.744c4.947 6.522 14.393 13.552 30.77 20.747 53.739 21.077 65.855-12.047 68.363-23.58 4.695-21.6-8.653-38.31-21.981-50.34 7.588-1.342 15.319-1.975 23.072-1.942zM98.634 8.015c2.479.086 3.708.673 4.225 1.127 13.562 11.878 25.475 26.703 21.421 45.35-1.142 5.252-4.304 14.298-12.113 19.8-7.125 5.02-20.403 8.605-45.662-1.268-18.9-8.325-26.565-15.71-29.409-21.076a136.98 136.98 0 017.153-9.2c2.572 7.23 8.34 14.018 16.476 18.4 15.11 8.14 32.66 4.894 39.2-7.248 6.541-12.141-.406-28.582-15.516-36.72a38.785 38.785 0 00-4.614-2.111 112.555 112.555 0 0118.839-7.054zM70.43 20.164c3.348.415 6.908 1.512 10.51 3.453 12.94 6.97 16.503 19.472 12.547 26.816-3.955 7.344-16.355 11.248-29.295 4.278C55.4 49.975 50.937 42.685 50.22 36.194a105.568 105.568 0 0120.21-16.03zm-58.175 92.774c12.594 6.28 28.639 12.521 48.91 18.644C159.12 161.174 188.94 63.01 187.947 35.42c-.246-6.849-1.101-13.31-2.477-19.41 19.265 10.02 35.973 25.697 49.273 45.144 23.36 34.158 42.955 75.501 32.356 117.299-10.992 43.342-45.841 74.807-84.542 88.483-35.86 12.671-72.661-.641-104.651-21.63-31.641-20.759-59.844-49.868-65.909-90.274-2.107-14.039-1.935-28.256.26-42.094z" fill="#7DE3FB"/><g filter="url(#filter0_dddddd)"><path fill-rule="evenodd" clip-rule="evenodd" d="M300.687 98.035c11.846 5.143 19.266 16.102 23.449 28.198 3.852 11.14 3.178 22.946-2.143 33.407-5.703 11.21-14.444 21.661-26.969 23.823-12.75 2.2-24.606-4.923-34.556-13.206-10.65-8.865-20.638-19.477-21.172-33.183-.598-15.347 5.314-31.44 18.332-39.718 12.657-8.048 29.194-5.34 43.059.68z" fill="#FEC343"/></g><circle cx="284.247" cy="138.211" r="22.054" transform="rotate(12.723 284.247 138.211)" fill="#FEFEFE"/><circle cx="278.048" cy="132.29" r="2.94" transform="rotate(12.723 278.048 132.29)" fill="#FEC343"/><circle cx="292.389" cy="135.527" r="2.94" transform="rotate(12.723 292.389 135.527)" fill="#FEC343"/><path d="M273.238 140.247s-.828 8.857 8.096 10.871c8.923 2.015 11.982-6.338 11.982-6.338" stroke="#FEC343" stroke-width="2.205" stroke-linecap="round"/><path d="M321.96 79.983c-.913-6.596-1.67-21.01 2.602-25.891 4.273-4.882.046 15.227-2.602 25.891zm3.384-.685c3.608-6.32 12.697-19.767 20.186-22.998 7.49-3.23-10.337 13.986-20.186 22.998zm1.972 6.141c5.323-4.962 17.998-15.1 26.109-15.959 8.111-.86-14.027 10.281-26.109 15.959z" fill="#FEC343"/></g><defs><clipPath id="clip0"><path transform="matrix(-1 0 0 1 443 0)" fill="#fff" d="M0 0h443v587H0z"/></clipPath><filter id="filter0_dddddd" x="11.216" y="-37.94" width="543.053" height="541.537" filterUnits="userSpaceOnUse" color-interpolation-filters="sRGB"><feFlood flood-opacity="0" result="BackgroundImageFix"/><feColorMatrix in="SourceAlpha" values="0 0 0 0 0 0 0 0 0 0 0 0 0 0 0 0 0 0 127 0"/><feOffset dy="1.541"/><feGaussianBlur stdDeviation="2.992"/><feColorMatrix values="0 0 0 0 0 0 0 0 0 0 0 0 0 0 0 0 0 0 0.01 0"/><feBlend in2="BackgroundImageFix" result="effect1_dropShadow"/><feColorMatrix in="SourceAlpha" values="0 0 0 0 0 0 0 0 0 0 0 0 0 0 0 0 0 0 127 0"/><feOffset dy="4.522"/><feGaussianBlur stdDeviation="7.191"/><feColorMatrix values="0 0 0 0 0 0 0 0 0 0 0 0 0 0 0 0 0 0 0.0121168 0"/><feBlend in2="effect1_dropShadow" result="effect2_dropShadow"/><feColorMatrix in="SourceAlpha" values="0 0 0 0 0 0 0 0 0 0 0 0 0 0 0 0 0 0 127 0"/><feOffset dy="9.878"/><feGaussianBlur stdDeviation="13.54"/><feColorMatrix values="0 0 0 0 0 0 0 0 0 0 0 0 0 0 0 0 0 0 0.015 0"/><feBlend in2="effect2_dropShadow" result="effect3_dropShadow"/><feColorMatrix in="SourceAlpha" values="0 0 0 0 0 0 0 0 0 0 0 0 0 0 0 0 0 0 127 0"/><feOffset dy="19.608"/><feGaussianBlur stdDeviation="24.153"/><feColorMatrix values="0 0 0 0 0 0 0 0 0 0 0 0 0 0 0 0 0 0 0.0178832 0"/><feBlend in2="effect3_dropShadow" result="effect4_dropShadow"/><feColorMatrix in="SourceAlpha" values="0 0 0 0 0 0 0 0 0 0 0 0 0 0 0 0 0 0 127 0"/><feOffset dy="39.205"/><feGaussianBlur stdDeviation="45.176"/><feColorMatrix values="0 0 0 0 0 0 0 0 0 0 0 0 0 0 0 0 0 0 0.0215656 0"/><feBlend in2="effect4_dropShadow" result="effect5_dropShadow"/><feColorMatrix in="SourceAlpha" values="0 0 0 0 0 0 0 0 0 0 0 0 0 0 0 0 0 0 127 0"/><feOffset dy="95.329"/><feGaussianBlur stdDeviation="108.134"/><feColorMatrix values="0 0 0 0 0 0 0 0 0 0 0 0 0 0 0 0 0 0 0.03 0"/><feBlend in2="effect5_dropShadow" result="effect6_dropShadow"/><feBlend in="SourceGraphic" in2="effect6_dropShadow" result="shape"/></filter></defs></svg>