<svg width="482" height="481" viewBox="0 0 482 481" fill="none" xmlns="http://www.w3.org/2000/svg"><path fill-rule="evenodd" clip-rule="evenodd" d="M201.885 300.206c-12.238-10.194-21.464-23.283-23.98-40.622-.456-3.144-.257-9.672 1.723-17.694 1.943-7.874 5.42-16.427 10.848-23.831 5.374-7.33 12.596-13.468 22.252-16.964 9.665-3.499 22.562-4.636 39.735-.663 6.65 1.539 12.658 3.106 18.081 4.692a83.83 83.83 0 01-.009 5.065c-5.083-1.166-10.911-2.117-17.58-2.805-62.585-3.849-62.143 35.698-60.254 48.874 2.447 17.066 12.747 28.643 24.867 36.878-5 3.026-10.23 5.457-15.683 7.07zm-12.6 2.154c-10.722-10.596-18.861-24.004-21.361-41.234-2.756-19 12.174-87.659 86.982-70.35a353.54 353.54 0 0114.704 3.718c-3.251-23.314-13.915-45.283-32.908-58.594-21.341-14.956-48.706-19.2-72.57-9.895-23.066 8.993-36.65 31.674-44.87 55.685-8.312 24.276-11.482 50.897.557 73.745 12.993 24.66 35.991 44.556 62.959 46.803 2.199.183 4.368.22 6.507.122zm37.207-15.399c-12.116-7.431-21.691-17.462-23.808-32.229-.841-5.862-1.023-15.966 4.334-23.885 4.722-6.98 15.943-15.318 44.952-13.577 7.02.732 12.829 1.747 17.633 2.93a85.014 85.014 0 01-2.366 10.681c-2.942-1.356-6.306-2.711-10.144-4.057-41.394-12.837-47.956 10.397-48.971 18.432-1.98 15.669 10.161 27.062 21.315 34.987.962.683 2.088 1.157 3.347 1.446a117.12 117.12 0 01-6.292 5.272zM243.06 271.5a33.907 33.907 0 01-3.753.957c-1.964.37-2.917.312-3.248.267-10.756-7.701-18.645-16.319-17.32-26.805.426-3.367 1.901-8.052 5.521-10.768 2.703-2.027 9.997-5.384 28.712.38 4.535 1.599 8.147 3.138 11.023 4.575-.122.293-.245.585-.369.876a31.51 31.51 0 00-3.238-1.634c-11.801-5.135-24.578-2.341-28.54 6.242-3.801 8.234 1.895 18.805 12.785 24.185-.52.577-1.044 1.153-1.573 1.725zm8.3-9.697c-.374-.138-.749-.29-1.126-.454-4.153-1.807-6.975-4.52-8.394-7.002-1.422-2.489-1.15-4.056-.823-4.767.328-.71 1.353-1.95 4.212-2.575 2.852-.624 6.816-.384 10.969 1.423a21.465 21.465 0 012.975 1.578 98.358 98.358 0 01-7.813 11.797z" fill="#E95A4A"/><path fill-rule="evenodd" clip-rule="evenodd" d="M254.333 47.718c3.063 3.646 5.736 7.65 7.988 11.892l.09.172c-2.06 6.908-6.01 13.347-12.999 18.506-4.043 2.986-12.216 7.834-21.609 7.441-8.941-.373-20.273-5.58-30.8-25.312-6.982-14.694-7.9-23.81-6.555-29.446a67.279 67.279 0 0116.636-3.207c-2.802 3.965-4.048 11.268-1.581 24.27 7.271 31.378 26.336 26.493 32.434 24.005 11.891-4.852 15.166-17.03 16.374-27.229.042-.36.049-.724.022-1.092zm-39.614-20.001c1.735.09 3.466.25 5.187.48-4.737 3.134-7.601 9.67-6.827 16.85 1.026 9.522 8.061 16.572 15.712 15.747 7.651-.825 13.021-9.212 11.995-18.733a21.348 21.348 0 00-1.121-4.91c3.3 2.115 6.151 4.32 8.118 6.418 2.29 2.44 2.595 3.864 2.527 4.442-1.183 9.99-4.243 20.152-14.101 24.175-2.777 1.133-7.938 2.534-12.935.679-4.559-1.693-10.4-6.67-13.834-21.409-2.656-14.07-.503-19.702 1.622-21.902.985-1.02 2.242-1.59 3.657-1.837zm-28.699 4.881c-.809 6.855 1.023 16.39 7.338 29.656 22.023 41.371 49.884 25.66 58.478 19.317 6.407-4.73 10.496-10.41 13.012-16.463 2.749 7.014 3.936 14.45 3.738 22.007a55.398 55.398 0 01-5.928 5.062c-2.585 1.914-7.83 4.536-14.659 6.508-6.771 1.956-14.797 3.184-22.885 2.561-8.065-.62-16.102-3.07-23.1-8.39-6.979-5.307-13.199-13.676-17.313-26.603-3.868-12.157-6.026-21.848-6.954-29.58a65.513 65.513 0 018.273-4.075zm-12.076 6.477c1.086 7.783 3.282 17.143 6.869 28.415 17.315 54.41 71.894 37.134 84.273 27.965 1.067-.79 2.089-1.6 3.069-2.426-.666 5.582-2.053 11.186-4.091 16.692-6.88 18.586-17.593 37.586-36.785 44.55-19.9 7.22-41.734 1.642-57.699-10.267-14.793-11.035-19.726-29.432-20.347-47.954-.614-18.32 2.968-37.499 17.037-50.799a62.19 62.19 0 017.674-6.176zm58.283-6.169c2.259 2.066 4.042 5.325 4.502 9.592.88 8.154-3.748 13.74-8.375 14.24-4.628.498-10.34-3.974-11.219-12.128-.879-8.154 3.748-13.74 8.376-14.24a6.78 6.78 0 011.308-.011 94.556 94.556 0 015.408 2.547z" fill="#7DE3FB"/><g filter="url(#filter0_dddddd)"><path fill-rule="evenodd" clip-rule="evenodd" d="M248.871 127.631c5.153 2.238 8.381 7.005 10.201 12.267 1.676 4.846 1.383 9.982-.932 14.532-2.481 4.877-6.283 9.423-11.732 10.364-5.547.957-10.704-2.142-15.033-5.745-4.632-3.856-8.977-8.473-9.21-14.435-.26-6.676 2.312-13.677 7.975-17.278 5.506-3.501 12.7-2.323 18.731.295z" fill="#FBC042"/></g><path d="M232.372 144.208c.272 4.54 7.993 8.76 11.82 10.302 8.796-7.818 7.153-14.732 5.232-17.211-2.274-3.091-6.311-.761-8.978 2.247-2.796-2.3-8.415-1.013-8.074 4.662z" fill="#FEFEFE"/><g clip-path="url(#clip0)" fill="#FABF42"><path d="M271.411 128.643c6.234-6.001 20.801-17.813 29.197-17.053 8.395.759-15.967 11.685-29.197 17.053zm3.307 3.032c9.399-1.038 30.476-1.765 39.595 3.636s-22.597-.174-39.595-3.636zm-4.948 6.765c9.283 1.802 29.624 7.373 36.726 15.24 7.101 7.867-21.525-6.882-36.726-15.24z"/></g><defs><clipPath id="clip0"><path transform="scale(1 -1) rotate(15 769.442 969.658)" fill="#fff" d="M0 0h47.169v50.479H0z"/></clipPath><filter id="filter0_dddddd" x=".759" y=".151" width="480.613" height="479.954" filterUnits="userSpaceOnUse" color-interpolation-filters="sRGB"><feFlood flood-opacity="0" result="BackgroundImageFix"/><feColorMatrix in="SourceAlpha" values="0 0 0 0 0 0 0 0 0 0 0 0 0 0 0 0 0 0 127 0"/><feOffset dy="1.541"/><feGaussianBlur stdDeviation="2.992"/><feColorMatrix values="0 0 0 0 0 0 0 0 0 0 0 0 0 0 0 0 0 0 0.01 0"/><feBlend in2="BackgroundImageFix" result="effect1_dropShadow"/><feColorMatrix in="SourceAlpha" values="0 0 0 0 0 0 0 0 0 0 0 0 0 0 0 0 0 0 127 0"/><feOffset dy="4.522"/><feGaussianBlur stdDeviation="7.191"/><feColorMatrix values="0 0 0 0 0 0 0 0 0 0 0 0 0 0 0 0 0 0 0.0121168 0"/><feBlend in2="effect1_dropShadow" result="effect2_dropShadow"/><feColorMatrix in="SourceAlpha" values="0 0 0 0 0 0 0 0 0 0 0 0 0 0 0 0 0 0 127 0"/><feOffset dy="9.878"/><feGaussianBlur stdDeviation="13.54"/><feColorMatrix values="0 0 0 0 0 0 0 0 0 0 0 0 0 0 0 0 0 0 0.015 0"/><feBlend in2="effect2_dropShadow" result="effect3_dropShadow"/><feColorMatrix in="SourceAlpha" values="0 0 0 0 0 0 0 0 0 0 0 0 0 0 0 0 0 0 127 0"/><feOffset dy="19.608"/><feGaussianBlur stdDeviation="24.153"/><feColorMatrix values="0 0 0 0 0 0 0 0 0 0 0 0 0 0 0 0 0 0 0.0178832 0"/><feBlend in2="effect3_dropShadow" result="effect4_dropShadow"/><feColorMatrix in="SourceAlpha" values="0 0 0 0 0 0 0 0 0 0 0 0 0 0 0 0 0 0 127 0"/><feOffset dy="39.205"/><feGaussianBlur stdDeviation="45.176"/><feColorMatrix values="0 0 0 0 0 0 0 0 0 0 0 0 0 0 0 0 0 0 0.0215656 0"/><feBlend in2="effect4_dropShadow" result="effect5_dropShadow"/><feColorMatrix in="SourceAlpha" values="0 0 0 0 0 0 0 0 0 0 0 0 0 0 0 0 0 0 127 0"/><feOffset dy="95.329"/><feGaussianBlur stdDeviation="108.134"/><feColorMatrix values="0 0 0 0 0 0 0 0 0 0 0 0 0 0 0 0 0 0 0.03 0"/><feBlend in2="effect5_dropShadow" result="effect6_dropShadow"/><feBlend in="SourceGraphic" in2="effect6_dropShadow" result="shape"/></filter></defs></svg>