<svg width="388" height="456" viewBox="0 0 388 456" fill="none" xmlns="http://www.w3.org/2000/svg"><g clip-path="url(#clip0)"><path fill-rule="evenodd" clip-rule="evenodd" d="M43.089 349.218c25.445 4.801 51.433 2.838 75.84-11.928 4.474-2.707 12.505-9.74 20.558-20.54 7.91-10.608 15.09-23.858 18.8-38.386 3.674-14.386 3.928-29.881-1.685-45.709-5.618-15.842-17.565-33.282-40.348-50.791-8.769-6.74-16.918-12.651-24.49-17.815a135.095 135.095 0 00-6.66 5.48c6.716 5.182 13.934 11.523 21.688 19.193 69.504 74.672 19.351 114.979.841 126.219-23.975 14.56-49.166 13.578-72.037 6.855 1.386 9.56 3.788 18.785 7.493 27.422zm10.139 17.651c24.395 2.526 49.654-1.1 73.888-15.762 26.725-16.168 97.58-105.874-1.469-181.998-6.956-5.346-13.571-10.214-19.864-14.636 32.657-20.004 71.283-29.303 107.635-19.188 40.847 11.365 74.454 41.368 87.42 80.972 12.532 38.279-1.935 78.784-23.614 113.924-21.919 35.528-52.097 67.019-93.25 75.499-44.414 9.152-93.18.809-123.869-30.759a82.148 82.148 0 01-6.877-8.052zm-19.083-62.274c21.88 7.531 44.45 9.191 65.28-3.458 8.258-5.015 21.24-15.286 25.695-30.333 3.944-13.318 2.744-36.171-29.476-70.888-8.17-8.062-15.452-14.318-21.914-19.144a138.092 138.092 0 00-11.222 14.282c4.744 2.295 9.923 5.122 15.579 8.553 58.903 38.756 36.486 71.008 27.437 80.586-17.645 18.679-44.506 15.194-65.99 9.366-1.853-.503-3.61-1.428-5.275-2.71a190.16 190.16 0 00-.114 13.746zm2.208-36.516c.803 1.925 1.628 3.665 2.465 5.19 1.684 3.068 2.808 4.207 3.186 4.541 20.84 5.585 40.029 6.665 51.982-5.988 3.808-4.032 8.25-10.812 7.916-18.319-.253-5.684-3.703-18.435-30.348-36.038-6.675-4.036-12.336-6.985-17.12-9.121-.3.56-.595 1.121-.888 1.684a51.524 51.524 0 015.398 2.38c18.647 9.524 28.338 28.469 21.646 42.316-6.42 13.284-25.59 17.049-43.602 8.922a308.33 308.33 0 00-.635 4.433zm3.616-20.749c.537.311 1.09.612 1.66.903 6.624 3.383 13.027 4.143 17.697 3.346 4.68-.798 6.485-2.813 7.101-4.089.617-1.276 1.088-3.971-1.12-8.287-2.202-4.307-6.66-9.094-13.284-12.477a35.308 35.308 0 00-5.083-2.121 160.198 160.198 0 00-6.97 22.725z" fill="#7BDFF7"/><path fill-rule="evenodd" clip-rule="evenodd" d="M294.639 57.358c-6.057-.065-12.152.544-18.14 1.759l-.241.05c-5.123 7.605-8.259 16.69-7.682 27.725.333 6.385 2.173 18.333 10.147 27.245 7.591 8.484 21.863 15.413 49.757 9.814 20.08-5.011 29.778-11.473 34.23-17.349a85.594 85.594 0 00-10.288-18.938c-1.633 5.956-7.803 13.081-22.571 21.161-36.708 18.208-47.312-4.473-49.794-12.475-4.84-15.604 4.482-28.663 13.527-38.088a7.221 7.221 0 011.055-.904zm51.66 22.766a81.589 81.589 0 00-4.664-4.709c.749 7.186-3.359 15.281-11.041 20.322-10.185 6.684-22.796 5.468-28.167-2.717-5.371-8.184-1.469-20.238 8.717-26.922a27.084 27.084 0 015.73-2.865c-4.746-1.534-9.216-2.553-12.866-2.792-4.247-.279-5.894.573-6.406 1.107-8.861 9.233-16.375 20.45-12.362 33.387 1.13 3.645 3.922 9.847 9.783 13.258 5.347 3.113 14.957 4.831 32.214-3.703 15.971-8.757 19.766-15.424 20.211-19.29.206-1.79-.249-3.487-1.149-5.076zm18.39 32.144c-6.082 6.333-16.931 12.235-35.069 16.748-58.446 11.786-65.518-28.284-66.228-41.853-.529-10.119 1.748-18.725 5.664-26.087-9.113 2.965-17.379 7.807-24.645 14.106a70.498 70.498 0 00-.184 9.915c.208 4.087 1.869 11.36 5.449 19.663 3.548 8.233 8.826 17.113 15.972 24.557 7.126 7.422 16.027 13.341 26.909 15.918 10.853 2.571 24.102 1.921 40.128-4.481 15.071-6.02 26.337-11.731 34.685-17.065a83.267 83.267 0 00-2.681-11.421zm3.392 17.098c-8.524 5.221-19.496 10.626-33.471 16.208-67.453 26.946-94.574-40.642-95.566-60.214a77.965 77.965 0 01-.095-4.975c-4.948 5.163-9.334 11.054-13.098 17.506-12.704 21.777-22.718 47.655-14.055 72.138 8.983 25.389 32.104 42.337 56.706 48.402 22.795 5.62 44.858-4.396 63.56-18.751 18.497-14.197 34.449-33.213 36.151-57.782a79.157 79.157 0 00-.132-12.532zm-41.027-62.254c-3.855-.55-8.498.33-13.063 3.326-8.723 5.724-10.474 14.784-7.225 19.735 3.249 4.95 12.258 6.95 20.98 1.225 8.723-5.724 10.474-14.785 7.226-19.735a8.627 8.627 0 00-1.046-1.295 119.258 119.258 0 00-6.872-3.256z" fill="#E95A4A"/><g filter="url(#filter0_dddddd)"><path fill-rule="evenodd" clip-rule="evenodd" d="M211.234 111.447c-8.136-4.164-17.462-3.294-25.955-.144-7.821 2.901-13.972 8.576-17.299 16.187-3.565 8.156-5.349 17.632-.901 25.451 4.529 7.959 13.751 11.239 22.752 12.955 9.633 1.837 19.924 2.527 27.656-3.341 8.659-6.572 14.799-17.037 13.473-27.874-1.289-10.537-10.203-18.361-19.726-23.234z" fill="#FEC343"/></g><circle r="18.35" transform="scale(-1 1) rotate(-4.774 1573.125 2449.45)" fill="#FEFEFE"/><circle r="2.447" transform="scale(-1 1) rotate(-4.774 1532.168 2524.65)" fill="#FEC343"/><circle r="2.447" transform="scale(-1 1) rotate(-4.774 1526.054 2377.923)" fill="#FEC343"/><path d="M206.639 143.801s-1.559 7.235-9.144 6.602c-7.586-.634-7.923-8.027-7.923-8.027" stroke="#FEC343" stroke-width="2.806" stroke-linecap="round"/><path d="M173.516 91.75c.859-10.973.696-34.83-6.833-42.467-7.529-7.636 1.418 25.13 6.833 42.468zm-5.651-.799c-6.574-10.074-22.889-31.372-35.564-35.969-12.675-4.597 18.428 22.064 35.564 35.97zm-2.651 10.327c-9.271-7.665-31.179-23.151-44.647-23.774-13.469-.622 24.153 15.59 44.647 23.774z" fill="#FEC343"/></g><defs><clipPath id="clip0"><path transform="rotate(17.497 116.655 0)" fill="#fff" d="M116.655 0H400.34v388H116.655z"/></clipPath><filter id="filter0_dddddd" x="-120.792" y="-58.034" width="637.037" height="636.6" filterUnits="userSpaceOnUse" color-interpolation-filters="sRGB"><feFlood flood-opacity="0" result="BackgroundImageFix"/><feColorMatrix in="SourceAlpha" values="0 0 0 0 0 0 0 0 0 0 0 0 0 0 0 0 0 0 127 0"/><feOffset dy="1.961"/><feGaussianBlur stdDeviation="3.807"/><feColorMatrix values="0 0 0 0 0 0 0 0 0 0 0 0 0 0 0 0 0 0 0.01 0"/><feBlend in2="BackgroundImageFix" result="effect1_dropShadow"/><feColorMatrix in="SourceAlpha" values="0 0 0 0 0 0 0 0 0 0 0 0 0 0 0 0 0 0 127 0"/><feOffset dy="5.753"/><feGaussianBlur stdDeviation="9.148"/><feColorMatrix values="0 0 0 0 0 0 0 0 0 0 0 0 0 0 0 0 0 0 0.0121168 0"/><feBlend in2="effect1_dropShadow" result="effect2_dropShadow"/><feColorMatrix in="SourceAlpha" values="0 0 0 0 0 0 0 0 0 0 0 0 0 0 0 0 0 0 127 0"/><feOffset dy="12.566"/><feGaussianBlur stdDeviation="17.225"/><feColorMatrix values="0 0 0 0 0 0 0 0 0 0 0 0 0 0 0 0 0 0 0.015 0"/><feBlend in2="effect2_dropShadow" result="effect3_dropShadow"/><feColorMatrix in="SourceAlpha" values="0 0 0 0 0 0 0 0 0 0 0 0 0 0 0 0 0 0 127 0"/><feOffset dy="24.944"/><feGaussianBlur stdDeviation="30.726"/><feColorMatrix values="0 0 0 0 0 0 0 0 0 0 0 0 0 0 0 0 0 0 0.0178832 0"/><feBlend in2="effect3_dropShadow" result="effect4_dropShadow"/><feColorMatrix in="SourceAlpha" values="0 0 0 0 0 0 0 0 0 0 0 0 0 0 0 0 0 0 127 0"/><feOffset dy="49.874"/><feGaussianBlur stdDeviation="57.47"/><feColorMatrix values="0 0 0 0 0 0 0 0 0 0 0 0 0 0 0 0 0 0 0.0215656 0"/><feBlend in2="effect4_dropShadow" result="effect5_dropShadow"/><feColorMatrix in="SourceAlpha" values="0 0 0 0 0 0 0 0 0 0 0 0 0 0 0 0 0 0 127 0"/><feOffset dy="121.271"/><feGaussianBlur stdDeviation="137.561"/><feColorMatrix values="0 0 0 0 0 0 0 0 0 0 0 0 0 0 0 0 0 0 0.03 0"/><feBlend in2="effect5_dropShadow" result="effect6_dropShadow"/><feBlend in="SourceGraphic" in2="effect6_dropShadow" result="shape"/></filter></defs></svg>