<svg width="223" height="305" viewBox="0 0 223 305" fill="none" xmlns="http://www.w3.org/2000/svg"><g clip-path="url(#clip0)"><path fill-rule="evenodd" clip-rule="evenodd" d="M27.38 279.2c20.213-2.414 39.232-10.028 54.04-26.867 2.715-3.087 7.073-10.257 10.558-20.258 3.423-9.822 5.675-21.452 5.023-33.221-.646-11.654-4.117-23.331-12.066-33.871-7.956-10.549-21.035-20.8-42.254-28.543-8.167-2.98-15.673-5.486-22.57-7.568a106.5 106.5 0 00-3.699 5.683c6.26 2.298 13.17 5.346 20.796 9.263 69.757 39.556 41.683 81.628 30.462 94.43-14.533 16.581-33.652 21.799-52.387 22.164 3.298 6.84 7.279 13.188 12.098 18.788zm11.774 10.836c18.886-3.871 36.966-12.559 51.67-29.279 16.215-18.438 48.134-102.437-44.115-136.099a454.53 454.53 0 00-18.352-6.278c19.756-22.715 46.517-38.816 76.161-39.824 33.309-1.133 65.596 13.418 84.677 40.045 18.442 25.736 17.169 59.522 9.221 90.991-8.036 31.816-23.219 62.558-52.067 78.641-31.135 17.358-69.667 22.629-100.136 6.215a64.425 64.425 0 01-7.06-4.412zM10.13 247.859c18.183.475 35.496-3.614 48.123-18.02 5.006-5.712 12.311-16.481 12.096-28.815-.191-10.916-6.492-27.766-38.853-46.179-8.03-4.113-14.968-7.082-20.953-9.173a108.59 108.59 0 00-5.038 13.359c4.099.6 8.65 1.495 13.7 2.731 53.32 15.135 44.137 44.612 39.617 53.932-8.815 18.173-29.776 21.909-47.261 22.618-1.508.061-3.044-.218-4.595-.786.94 3.5 1.989 6.952 3.164 10.333zM3.154 219.96a42.512 42.512 0 003.076 3.309c1.987 1.902 3.099 2.49 3.461 2.652 16.944-.739 31.586-4.464 37.557-16.775 1.902-3.923 3.63-10.055 1.604-15.605-1.532-4.201-7.132-12.946-31.269-19.845-5.958-1.449-10.899-2.322-14.99-2.792-.093.49-.182.98-.268 1.472 1.514.079 3.054.247 4.609.509 16.23 2.733 27.974 14.646 26.23 26.608-1.675 11.477-15.156 18.83-30.581 16.994.182 1.158.372 2.316.571 3.473zM.962 203.551c.476.105.962.2 1.458.284 5.765.971 10.746.027 14.058-1.674 3.32-1.704 4.197-3.641 4.358-4.744.16-1.102-.123-3.234-2.798-5.948-2.67-2.708-7.143-5.244-12.908-6.214a27.658 27.658 0 00-4.313-.389 125.946 125.946 0 00.145 18.685z" fill="#7BDFF7"/><path fill-rule="evenodd" clip-rule="evenodd" d="M146.993.937c-4.556 1.383-8.982 3.28-13.184 5.606l-.169.094c-2.044 6.913-2.248 14.465.793 22.602 1.759 4.708 5.962 13.23 14.047 18.028 7.696 4.566 20.033 6.388 39.623-4.402 13.87-8.503 19.613-15.64 21.562-21.097A67.272 67.272 0 00197.476 10c.184 4.852-2.758 11.652-11.92 21.2-23.218 22.326-36.528 7.828-40.28 2.415-7.316-10.555-3.414-22.548 1.139-31.752.161-.325.355-.634.578-.927zm44.111 4.858a64.263 64.263 0 00-4.61-2.427c2.26 5.21 1.093 12.25-3.474 17.845-6.057 7.418-15.799 9.487-21.76 4.62-5.961-4.867-5.884-14.826.172-22.244a21.278 21.278 0 013.62-3.503c-3.921-.028-7.513.265-10.306.948-3.25.795-4.284 1.823-4.542 2.344-4.461 9.017-7.442 19.201-1.377 27.952 1.709 2.466 5.268 6.456 10.468 7.628 4.745 1.07 12.356.087 23.276-10.39 9.904-10.34 11.174-16.235 10.594-19.238-.269-1.391-1.011-2.555-2.061-3.535zm21.384 19.753c-3.063 6.185-9.802 13.174-22.333 20.845-41.033 22.649-55.805-5.72-59.544-15.726-2.788-7.461-3.115-14.451-1.919-20.896-6.132 4.377-11.185 9.96-15.143 16.4a55.26 55.26 0 002.206 7.477c1.121 3.015 4.085 8.074 8.731 13.454 4.606 5.333 10.662 10.743 17.779 14.635 7.097 3.881 15.169 6.214 23.936 5.575 8.744-.638 18.524-4.256 29.025-12.844 9.877-8.075 16.973-15.019 21.971-20.991a65.537 65.537 0 00-4.709-7.93zm6.584 12.017c-5.157 5.929-12.106 12.574-21.263 20.062-44.202 36.144-80.509-8.118-85.878-22.557a61.711 61.711 0 01-1.248-3.708c-2.488 5.04-4.384 10.494-5.681 16.22-4.378 19.33-5.77 41.097 6.511 57.405 12.735 16.911 34.075 24.153 53.953 22.886 18.418-1.174 32.591-13.898 43.22-29.08 10.512-15.016 17.977-33.042 13.447-51.864a62.346 62.346 0 00-3.061-9.364zM173.6.59c-3.02.498-6.293 2.256-9.007 5.58-5.187 6.353-4.358 13.56-.753 16.503 3.606 2.944 10.832 2.314 16.019-4.04 5.187-6.353 4.358-13.56.753-16.503a6.812 6.812 0 00-1.09-.723A94.195 94.195 0 00173.6.589z" fill="#E95A4A"/><g filter="url(#filter0_dddddd)"><path fill-rule="evenodd" clip-rule="evenodd" d="M97.247 61.2c-7.084-1.199-13.87 1.657-19.493 6.026-5.178 4.024-8.448 9.732-9.143 16.225-.746 6.957.156 14.483 5.34 19.294 5.275 4.896 12.965 5.175 20.118 4.335 7.656-.899 15.535-2.814 19.945-9.042 4.938-6.973 7.068-16.27 3.513-24.081-3.457-7.595-11.989-11.354-20.28-12.757z" fill="#FEC343"/></g><circle r="14.425" transform="scale(-1 1) rotate(12.723 -429.285 -380.081)" fill="#FEFEFE"/><circle r="1.923" transform="scale(-1 1) rotate(12.723 -413.942 -400.201)" fill="#FEC343"/><circle r="1.923" transform="scale(-1 1) rotate(12.723 -418.75 -357.074)" fill="#FEC343"/><path d="M101.448 86.543s.541 5.792-5.295 7.11c-5.837 1.318-7.837-4.145-7.837-4.145" stroke="#FEC343" stroke-width="2.205" stroke-linecap="round"/><path d="M64.314 55.348c-1.95-8.43-7.71-26.278-15.16-30.224-7.449-3.945 7.003 18.506 15.16 30.224zm-4.425.736c-7.31-5.999-24.576-18.11-35.164-18.561-10.589-.451 19.03 12.186 35.163 18.561zm.453 8.369c-8.762-3.556-28.848-9.988-39.092-7.271-10.244 2.716 21.793 5.98 39.092 7.27z" fill="#FEC343"/></g><defs><clipPath id="clip0"><path fill="#fff" d="M0 0h223v305H0z"/></clipPath><filter id="filter0_dddddd" x="-153.293" y="-66.123" width="493.847" height="492.996" filterUnits="userSpaceOnUse" color-interpolation-filters="sRGB"><feFlood flood-opacity="0" result="BackgroundImageFix"/><feColorMatrix in="SourceAlpha" values="0 0 0 0 0 0 0 0 0 0 0 0 0 0 0 0 0 0 127 0"/><feOffset dy="1.541"/><feGaussianBlur stdDeviation="2.992"/><feColorMatrix values="0 0 0 0 0 0 0 0 0 0 0 0 0 0 0 0 0 0 0.01 0"/><feBlend in2="BackgroundImageFix" result="effect1_dropShadow"/><feColorMatrix in="SourceAlpha" values="0 0 0 0 0 0 0 0 0 0 0 0 0 0 0 0 0 0 127 0"/><feOffset dy="4.522"/><feGaussianBlur stdDeviation="7.191"/><feColorMatrix values="0 0 0 0 0 0 0 0 0 0 0 0 0 0 0 0 0 0 0.0121168 0"/><feBlend in2="effect1_dropShadow" result="effect2_dropShadow"/><feColorMatrix in="SourceAlpha" values="0 0 0 0 0 0 0 0 0 0 0 0 0 0 0 0 0 0 127 0"/><feOffset dy="9.878"/><feGaussianBlur stdDeviation="13.54"/><feColorMatrix values="0 0 0 0 0 0 0 0 0 0 0 0 0 0 0 0 0 0 0.015 0"/><feBlend in2="effect2_dropShadow" result="effect3_dropShadow"/><feColorMatrix in="SourceAlpha" values="0 0 0 0 0 0 0 0 0 0 0 0 0 0 0 0 0 0 127 0"/><feOffset dy="19.608"/><feGaussianBlur stdDeviation="24.153"/><feColorMatrix values="0 0 0 0 0 0 0 0 0 0 0 0 0 0 0 0 0 0 0.0178832 0"/><feBlend in2="effect3_dropShadow" result="effect4_dropShadow"/><feColorMatrix in="SourceAlpha" values="0 0 0 0 0 0 0 0 0 0 0 0 0 0 0 0 0 0 127 0"/><feOffset dy="39.205"/><feGaussianBlur stdDeviation="45.176"/><feColorMatrix values="0 0 0 0 0 0 0 0 0 0 0 0 0 0 0 0 0 0 0.0215656 0"/><feBlend in2="effect4_dropShadow" result="effect5_dropShadow"/><feColorMatrix in="SourceAlpha" values="0 0 0 0 0 0 0 0 0 0 0 0 0 0 0 0 0 0 127 0"/><feOffset dy="95.329"/><feGaussianBlur stdDeviation="108.134"/><feColorMatrix values="0 0 0 0 0 0 0 0 0 0 0 0 0 0 0 0 0 0 0.03 0"/><feBlend in2="effect5_dropShadow" result="effect6_dropShadow"/><feBlend in="SourceGraphic" in2="effect6_dropShadow" result="shape"/></filter></defs></svg>