<svg width="251" height="321" viewBox="0 0 251 321" fill="none" xmlns="http://www.w3.org/2000/svg"><g clip-path="url(#clip0)"><path fill-rule="evenodd" clip-rule="evenodd" d="M136.184 318.167c15.619-13.053 27.402-29.813 30.621-52.004.59-4.068.329-12.455-2.208-22.737-2.492-10.099-6.952-21.074-13.922-30.58-6.9-9.412-16.182-17.303-28.595-21.797-12.424-4.498-28.978-5.95-50.983-.859-8.47 1.96-16.128 3.957-23.044 5.977a106.43 106.43 0 00.002 6.78c6.5-1.491 13.953-2.708 22.482-3.587 80.039-4.923 79.475 45.653 77.059 62.504-3.13 21.826-16.302 36.631-31.803 47.162 6.497 3.932 13.297 7.079 20.391 9.141zm15.78 2.656c13.713-13.551 24.121-30.698 27.318-52.733 3.525-24.299-15.569-112.107-111.24-89.97a452.485 452.485 0 00-18.804 4.754c4.158-29.816 17.796-57.912 42.086-74.934 27.293-19.128 62.289-24.555 92.809-12.655 29.499 11.501 46.871 40.507 57.384 71.214 10.629 31.046 14.684 65.092-.713 94.313-16.616 31.537-46.028 56.981-80.518 59.855a64.658 64.658 0 01-8.322.156zm-47.34-19.504c15.497-9.525 27.773-22.4 30.492-41.362 1.078-7.519 1.322-20.529-5.59-30.747-6.117-9.043-20.592-19.724-57.758-17.492-8.974.935-16.408 2.233-22.564 3.748a108.606 108.606 0 003.07 13.944c3.76-1.735 8.063-3.468 12.97-5.189 52.939-16.416 61.33 13.296 62.629 23.573 2.532 20.038-12.995 34.608-27.259 44.744-1.23.874-2.67 1.479-4.28 1.85a149.54 149.54 0 008.29 6.931zm-21.07-19.571a42.56 42.56 0 004.383 1.095c2.703.508 3.956.395 4.348.332 13.795-9.865 24.031-20.977 22.316-34.552-.547-4.325-2.446-10.407-7.172-13.952-3.577-2.684-13.041-6.956-37.032.435-5.783 2.038-10.4 4.002-14.085 5.841.19.461.383.921.579 1.38a40.528 40.528 0 014.14-2.089c15.092-6.567 31.434-2.994 36.5 7.983 4.86 10.531-2.423 24.049-16.35 30.929a241.61 241.61 0 002.373 2.598zm-10.792-12.554c.457-.171.916-.357 1.376-.557 5.361-2.333 9.02-5.842 10.868-9.075 1.851-3.24 1.53-5.342 1.062-6.353-.467-1.011-1.868-2.644-5.59-3.458-3.715-.812-8.847-.496-14.208 1.837a27.833 27.833 0 00-3.826 2.028 125.943 125.943 0 0010.318 15.578z" fill="#FEC343"/><path fill-rule="evenodd" clip-rule="evenodd" d="M84.556 19.718c-3.063 3.646-5.736 7.65-7.988 11.892l-.09.172c2.06 6.908 6.01 13.347 12.999 18.506 4.043 2.986 12.216 7.834 21.609 7.441 8.941-.373 20.273-5.58 30.8-25.312 6.982-14.694 7.9-23.81 6.555-29.446a67.274 67.274 0 00-16.635-3.207c2.801 3.965 4.047 11.268 1.58 24.27-7.271 31.378-26.336 26.493-32.434 24.005-11.891-4.852-15.166-17.03-16.373-27.229a5.702 5.702 0 01-.023-1.092zM124.171-.283c-1.736.09-3.467.25-5.188.48 4.737 3.134 7.602 9.67 6.827 16.85-1.026 9.522-8.061 16.572-15.712 15.747-7.651-.825-13.021-9.212-11.995-18.733.187-1.73.571-3.377 1.122-4.91-3.3 2.116-6.152 4.32-8.12 6.418-2.289 2.44-2.594 3.864-2.526 4.442 1.183 9.99 4.243 20.152 14.101 24.175 2.778 1.133 7.938 2.534 12.935.679 4.559-1.693 10.401-6.67 13.834-21.409 2.656-14.07.503-19.702-1.622-21.902-.984-1.02-2.242-1.59-3.656-1.837zm28.698 4.881c.809 6.855-1.023 16.39-7.338 29.656-22.023 41.371-49.884 25.66-58.477 19.317-6.408-4.73-10.497-10.41-13.013-16.463-2.749 7.014-3.936 14.45-3.738 22.007a55.328 55.328 0 005.928 5.062c2.586 1.914 7.83 4.536 14.66 6.508 6.77 1.956 14.796 3.184 22.885 2.561 8.064-.62 16.101-3.07 23.099-8.39 6.979-5.307 13.199-13.676 17.313-26.603 3.869-12.157 6.026-21.848 6.954-29.58a65.443 65.443 0 00-8.273-4.075zm12.076 6.477c-1.086 7.783-3.282 17.143-6.869 28.415-17.315 54.41-71.893 37.134-84.273 27.965a61.582 61.582 0 01-3.068-2.426c.665 5.582 2.052 11.186 4.09 16.692 6.88 18.586 17.593 37.586 36.785 44.55 19.9 7.22 41.734 1.642 57.699-10.267 14.793-11.035 19.726-29.432 20.347-47.954.614-18.32-2.968-37.499-17.036-50.799a62.273 62.273 0 00-7.675-6.176zm-58.283-6.169c-2.259 2.066-4.042 5.325-4.502 9.592-.879 8.154 3.748 13.74 8.376 14.24 4.627.498 10.339-3.973 11.218-12.128.879-8.154-3.748-13.74-8.376-14.24a6.784 6.784 0 00-1.308-.011 88.916 88.916 0 00-5.408 2.547z" fill="#7DE3FB"/><g filter="url(#filter0_dddddd)"><path fill-rule="evenodd" clip-rule="evenodd" d="M75.759 97.365c-6.59 2.861-10.718 8.958-13.045 15.687-2.144 6.197-1.769 12.766 1.192 18.586 3.172 6.236 8.035 12.051 15.004 13.253 7.093 1.224 13.688-2.739 19.224-7.347 5.925-4.932 11.482-10.836 11.779-18.461.332-8.538-2.957-17.491-10.199-22.096-7.041-4.478-16.242-2.971-23.955.378z" fill="#E95A4A"/></g><path d="M77.747 122.64l1.892-.333.29 1.791-2.228.362.38 2.339 2.228-.361s.191 3.653.666 4.101c.746.705 2.525 0 2.763-.448.433-.815-.665-4.102-.665-4.102l7.806-1.01-.38-2.339-7.806 1.01-.29-1.791 5.319-.863c2.942-.477 4.898-1.388 5.835-2.755.937-1.367 1.263-2.932.982-4.665-.469-2.888-2.693-5.163-5.79-5.076-.731 0-1.852-.016-3.249.21 0 0-6.92.6-7.806 1.611-.74.845.148 3.021.454 4.91.307 1.89 1.116 4.766 1.116 4.766l-2.31.503.793 2.14zm3.1-10.37c.535-.462 3.875-.563 5.153-.77 1.278-.207 2.285-.378 2.75-.334 1.517.139 2.644 1.26 2.92 2.964.38 2.34-.707 3.91-4.303 4.493l-5.349.868s-.826-2.425-1.055-3.835c-.228-1.41-.963-2.656-.116-3.386z" fill="#fff"/><path d="M44.969 110.433c-6.235-6-20.802-17.812-29.197-17.053-8.396.76 15.966 11.685 29.197 17.053zm-3.307 3.032c-9.399-1.038-30.476-1.764-39.595 3.637-9.12 5.401 22.597-.174 39.595-3.637zm4.947 6.766c-9.283 1.802-29.624 7.373-36.725 15.24-7.102 7.867 21.524-6.882 36.725-15.24z" fill="#E95A4A"/></g><defs><clipPath id="clip0"><path fill="#fff" d="M0 0h251v321H0z"/></clipPath><filter id="filter0_dddddd" x="-161.269" y="-31.94" width="494.021" height="493.177" filterUnits="userSpaceOnUse" color-interpolation-filters="sRGB"><feFlood flood-opacity="0" result="BackgroundImageFix"/><feColorMatrix in="SourceAlpha" values="0 0 0 0 0 0 0 0 0 0 0 0 0 0 0 0 0 0 127 0"/><feOffset dy="1.541"/><feGaussianBlur stdDeviation="2.992"/><feColorMatrix values="0 0 0 0 0 0 0 0 0 0 0 0 0 0 0 0 0 0 0.01 0"/><feBlend in2="BackgroundImageFix" result="effect1_dropShadow"/><feColorMatrix in="SourceAlpha" values="0 0 0 0 0 0 0 0 0 0 0 0 0 0 0 0 0 0 127 0"/><feOffset dy="4.522"/><feGaussianBlur stdDeviation="7.191"/><feColorMatrix values="0 0 0 0 0 0 0 0 0 0 0 0 0 0 0 0 0 0 0.0121168 0"/><feBlend in2="effect1_dropShadow" result="effect2_dropShadow"/><feColorMatrix in="SourceAlpha" values="0 0 0 0 0 0 0 0 0 0 0 0 0 0 0 0 0 0 127 0"/><feOffset dy="9.878"/><feGaussianBlur stdDeviation="13.54"/><feColorMatrix values="0 0 0 0 0 0 0 0 0 0 0 0 0 0 0 0 0 0 0.015 0"/><feBlend in2="effect2_dropShadow" result="effect3_dropShadow"/><feColorMatrix in="SourceAlpha" values="0 0 0 0 0 0 0 0 0 0 0 0 0 0 0 0 0 0 127 0"/><feOffset dy="19.608"/><feGaussianBlur stdDeviation="24.153"/><feColorMatrix values="0 0 0 0 0 0 0 0 0 0 0 0 0 0 0 0 0 0 0.0178832 0"/><feBlend in2="effect3_dropShadow" result="effect4_dropShadow"/><feColorMatrix in="SourceAlpha" values="0 0 0 0 0 0 0 0 0 0 0 0 0 0 0 0 0 0 127 0"/><feOffset dy="39.205"/><feGaussianBlur stdDeviation="45.176"/><feColorMatrix values="0 0 0 0 0 0 0 0 0 0 0 0 0 0 0 0 0 0 0.0215656 0"/><feBlend in2="effect4_dropShadow" result="effect5_dropShadow"/><feColorMatrix in="SourceAlpha" values="0 0 0 0 0 0 0 0 0 0 0 0 0 0 0 0 0 0 127 0"/><feOffset dy="95.329"/><feGaussianBlur stdDeviation="108.134"/><feColorMatrix values="0 0 0 0 0 0 0 0 0 0 0 0 0 0 0 0 0 0 0.03 0"/><feBlend in2="effect5_dropShadow" result="effect6_dropShadow"/><feBlend in="SourceGraphic" in2="effect6_dropShadow" result="shape"/></filter></defs></svg>