<svg width="443" height="579" viewBox="0 0 443 579" fill="none" xmlns="http://www.w3.org/2000/svg"><g clip-path="url(#clip0)"><path fill-rule="evenodd" clip-rule="evenodd" d="M261.172 577.698a14.902 14.902 0 01-2.597-3.131c-16.478-26.688-31.219-62.898-8.574-102.363 11.613-20.238 53.522-76.749 133.819-20.613 14.548 11.232 24.696 21.515 31.437 30.888 5.061-9.308 9.415-19.285 12.96-29.931a243.873 243.873 0 006.146-21.821c-10.651-6.676-24.317-13.405-41.759-19.989-65.926-21.013-107.28-6.902-133.509 14.534-27.153 22.192-40.092 53.877-45.244 70.53-9.527 30.793-6.816 56.074 1.706 77.208 15.148 3.541 30.417 5.172 45.615 4.688zm-60.396-8.759c-6.931-21.846-8.06-47.241 1.082-76.789 10.875-35.153 55.531-137.768 194.902-93.17 16.014 6.028 29.312 12.322 40.262 18.78a266.022 266.022 0 003.803-34.015c-8.105-5.093-16.964-10.377-26.632-15.863-35.696-20.257-68.483-25.194-97.825-21.049-29.55 4.175-56.49 17.698-79.94 35.725-23.453 18.03-43.024 40.273-57.687 61.154-14.767 21.029-24.047 39.942-27.44 50.964-5.155 16.746-8.341 31.789-9.886 45.424 19.137 12.636 39.081 22.414 59.361 28.839zm-70.96-36.918c1.841-12.634 4.949-26.239 9.486-40.979 15.609-50.709 129.209-220.179 281.121-133.974a735.541 735.541 0 0120.706 12.18c-.238-44.635-11.293-90.176-33.376-130.185-35.074-63.547-96.644-94.799-158.112-110.062-62.147-15.432-126.714-15.155-173.232 27.787C26.204 203.134-6.758 276.737 4.213 355.565c10.58 76.018 66.863 132.876 124.286 175.484.438.325.878.649 1.317.972zm278.333-37.606c-5.314-8.869-14.973-19.759-31.773-32.76-37.253-25.96-63.12-24.472-80.211-16.971-18.301 8.032-29.986 24.427-35.307 33.699-19.099 33.286-7.422 64.022 8.379 89.613.488.792 3.632 3.636 15.192 3.94 5.721.15 12.355-.367 19.56-1.42a209 209 0 0014.016-4.755 55.34 55.34 0 01-9.938-7.409c-21.187-19.824-22.947-52.128-3.932-72.153 19.014-20.025 51.604-20.188 72.791-.364 8.578 8.027 13.972 18.099 16.091 28.574a175.345 175.345 0 0015.132-19.994zm-74.467 64.633c17.412-8.348 33.581-19.221 47.762-32.622.556-11.1-3.74-22.743-13.126-31.525-16.576-15.511-41.191-14.762-55.055-.161-13.865 14.601-13.164 39.037 3.412 54.547 5.092 4.765 10.943 7.995 17.007 9.761z" fill="#E95A4A"/><path fill-rule="evenodd" clip-rule="evenodd" d="M300.848 1.921c-1.992.144-3.981.33-5.967.558-10.033 1.154-19.642 3.715-28.747 7.507-2.148 7.306-3.466 15.186-3.773 23.698-.208 5.76 1.237 16.17 5.248 28.26 3.976 11.987 10.301 25.093 19.423 36.412 9.095 11.286 20.865 20.678 35.823 25.623 14.919 4.931 33.592 5.635 56.864-1.396 21.228-6.413 37.395-12.852 49.633-19.136a145.328 145.328 0 00-3.966-14.736c-9.587 7.192-24.91 13.28-48.536 17.024-83.464 9.413-88.503-47.685-87.844-66.816.51-14.789 5.052-26.928 11.842-36.998zm9.334-.357c-7.956 9.983-13.339 22.238-13.869 37.607-.31 9.001.815 25.994 10.919 39.475 9.619 12.833 28.804 24.297 68.636 19.842 24.918-3.968 39.056-10.41 46.924-17.065a144.124 144.124 0 00-12.386-24.744c-4.947 6.523-14.392 13.552-30.77 20.747-53.739 21.077-65.855-12.047-68.362-23.58-4.696-21.6 8.653-38.31 21.98-50.34-7.588-1.342-15.319-1.975-23.072-1.942zm34.185 4.451c-2.48.086-3.708.673-4.226 1.127-13.562 11.878-25.474 26.703-21.421 45.35 1.142 5.252 4.304 14.298 12.113 19.8 7.125 5.02 20.403 8.605 45.662-1.268 18.9-8.324 26.565-15.71 29.409-21.076a136.631 136.631 0 00-7.153-9.2c-2.571 7.23-8.341 14.018-16.476 18.4-15.11 8.14-32.66 4.894-39.2-7.248-6.54-12.141.407-28.582 15.516-36.72a38.836 38.836 0 014.614-2.111 112.588 112.588 0 00-18.838-7.054zm28.202 12.149c-3.348.415-6.908 1.513-10.51 3.453-12.94 6.97-16.503 19.472-12.547 26.816 3.956 7.344 16.356 11.248 29.296 4.278 8.792-4.736 13.255-12.026 13.972-18.517a105.585 105.585 0 00-20.211-16.03zm58.175 92.774c-12.594 6.28-28.639 12.521-48.91 18.645C283.88 159.174 254.06 61.01 255.054 33.42c.247-6.849 1.101-13.31 2.477-19.41-19.265 10.02-35.973 25.697-49.272 45.144-23.361 34.158-42.956 75.501-32.356 117.299 10.991 43.342 45.84 74.807 84.542 88.483 35.859 12.671 72.66-.641 104.651-21.629 31.64-20.76 59.844-49.869 65.908-90.275 2.107-14.039 1.935-28.256-.26-42.094z" fill="#7DE3FB"/><g filter="url(#filter0_dddddd)"><path fill-rule="evenodd" clip-rule="evenodd" d="M142.313 90.035c-11.845 5.143-19.265 16.102-23.448 28.198-3.853 11.14-3.179 22.946 2.143 33.407 5.702 11.21 14.443 21.662 26.969 23.823 12.75 2.2 24.605-4.923 34.556-13.205 10.649-8.865 20.638-19.478 21.171-33.184.598-15.347-5.313-31.44-18.331-39.718-12.657-8.048-29.195-5.34-43.06.68z" fill="#FEC343"/></g><circle r="22.054" transform="scale(-1 1) rotate(12.723 -663.357 -646.883)" fill="#FEFEFE"/><circle r="2.94" transform="scale(-1 1) rotate(12.723 -639.902 -677.645)" fill="#FEC343"/><circle r="2.94" transform="scale(-1 1) rotate(12.723 -647.254 -611.709)" fill="#FEC343"/><path d="M169.763 132.247s.827 8.857-8.097 10.871c-8.923 2.015-11.981-6.338-11.981-6.338" stroke="#FEC343" stroke-width="2.205" stroke-linecap="round"/><path d="M121.04 71.983c.913-6.596 1.671-21.01-2.602-25.891-4.273-4.882-.045 15.227 2.602 25.891zm-3.384-.685c-3.608-6.32-12.697-19.767-20.186-22.998-7.49-3.23 10.337 13.986 20.186 22.998zm-1.972 6.141c-5.323-4.962-17.998-15.1-26.109-15.959-8.11-.859 14.027 10.281 26.109 15.959z" fill="#FEC343"/></g><defs><clipPath id="clip0"><path fill="#fff" d="M0 0h443v579H0z"/></clipPath><filter id="filter0_dddddd" x="-111.269" y="-45.94" width="543.053" height="541.537" filterUnits="userSpaceOnUse" color-interpolation-filters="sRGB"><feFlood flood-opacity="0" result="BackgroundImageFix"/><feColorMatrix in="SourceAlpha" values="0 0 0 0 0 0 0 0 0 0 0 0 0 0 0 0 0 0 127 0"/><feOffset dy="1.541"/><feGaussianBlur stdDeviation="2.992"/><feColorMatrix values="0 0 0 0 0 0 0 0 0 0 0 0 0 0 0 0 0 0 0.01 0"/><feBlend in2="BackgroundImageFix" result="effect1_dropShadow"/><feColorMatrix in="SourceAlpha" values="0 0 0 0 0 0 0 0 0 0 0 0 0 0 0 0 0 0 127 0"/><feOffset dy="4.522"/><feGaussianBlur stdDeviation="7.191"/><feColorMatrix values="0 0 0 0 0 0 0 0 0 0 0 0 0 0 0 0 0 0 0.0121168 0"/><feBlend in2="effect1_dropShadow" result="effect2_dropShadow"/><feColorMatrix in="SourceAlpha" values="0 0 0 0 0 0 0 0 0 0 0 0 0 0 0 0 0 0 127 0"/><feOffset dy="9.878"/><feGaussianBlur stdDeviation="13.54"/><feColorMatrix values="0 0 0 0 0 0 0 0 0 0 0 0 0 0 0 0 0 0 0.015 0"/><feBlend in2="effect2_dropShadow" result="effect3_dropShadow"/><feColorMatrix in="SourceAlpha" values="0 0 0 0 0 0 0 0 0 0 0 0 0 0 0 0 0 0 127 0"/><feOffset dy="19.608"/><feGaussianBlur stdDeviation="24.153"/><feColorMatrix values="0 0 0 0 0 0 0 0 0 0 0 0 0 0 0 0 0 0 0.0178832 0"/><feBlend in2="effect3_dropShadow" result="effect4_dropShadow"/><feColorMatrix in="SourceAlpha" values="0 0 0 0 0 0 0 0 0 0 0 0 0 0 0 0 0 0 127 0"/><feOffset dy="39.205"/><feGaussianBlur stdDeviation="45.176"/><feColorMatrix values="0 0 0 0 0 0 0 0 0 0 0 0 0 0 0 0 0 0 0.0215656 0"/><feBlend in2="effect4_dropShadow" result="effect5_dropShadow"/><feColorMatrix in="SourceAlpha" values="0 0 0 0 0 0 0 0 0 0 0 0 0 0 0 0 0 0 127 0"/><feOffset dy="95.329"/><feGaussianBlur stdDeviation="108.134"/><feColorMatrix values="0 0 0 0 0 0 0 0 0 0 0 0 0 0 0 0 0 0 0.03 0"/><feBlend in2="effect5_dropShadow" result="effect6_dropShadow"/><feBlend in="SourceGraphic" in2="effect6_dropShadow" result="shape"/></filter></defs></svg>