<svg width="204" height="275" viewBox="0 0 204 275" fill="none" xmlns="http://www.w3.org/2000/svg"><g clip-path="url(#clip0)"><path fill-rule="evenodd" clip-rule="evenodd" d="M113.917 273.206c12.238-10.194 21.465-23.283 23.98-40.622.456-3.144.257-9.672-1.723-17.694-1.943-7.874-5.42-16.427-10.848-23.831-5.373-7.33-12.596-13.468-22.251-16.964-9.666-3.499-22.563-4.636-39.735-.663-6.65 1.539-12.659 3.106-18.081 4.692a83.017 83.017 0 00.008 5.065c5.083-1.166 10.911-2.117 17.58-2.805 62.585-3.849 62.144 35.698 60.255 48.874-2.447 17.066-12.748 28.643-24.868 36.878 5 3.026 10.23 5.457 15.683 7.07zm12.6 2.154c10.723-10.596 18.861-24.004 21.361-41.234 2.756-19-12.174-87.659-86.982-70.35a353.653 353.653 0 00-14.704 3.718C49.443 144.18 60.107 122.211 79.1 108.9c21.342-14.956 48.706-19.2 72.57-9.895 23.066 8.993 36.65 31.674 44.871 55.685 8.311 24.276 11.481 50.897-.558 73.745-12.993 24.66-35.99 44.556-62.959 46.803-2.199.183-4.368.22-6.507.122zM89.31 259.961c12.117-7.431 21.691-17.462 23.808-32.229.841-5.862 1.023-15.966-4.334-23.885-4.721-6.98-15.943-15.318-44.952-13.577-7.02.732-12.828 1.747-17.632 2.93a84.874 84.874 0 002.366 10.681c2.941-1.356 6.306-2.711 10.143-4.057 41.394-12.837 47.956 10.397 48.971 18.432 1.98 15.669-10.16 27.062-21.315 34.987-.962.683-2.087 1.157-3.346 1.446a116.836 116.836 0 006.291 5.272zM72.742 244.5c1.354.421 2.612.742 3.753.957 1.964.37 2.917.312 3.248.267 10.756-7.701 18.645-16.319 17.32-26.805-.425-3.367-1.901-8.052-5.521-10.768-2.702-2.027-9.997-5.384-28.711.38-4.536 1.599-8.148 3.138-11.023 4.575.121.293.244.585.368.876a31.587 31.587 0 013.238-1.634c11.8-5.135 24.579-2.341 28.54 6.242 3.8 8.234-1.895 18.805-12.785 24.185.52.577 1.044 1.153 1.573 1.725zm-8.3-9.697c.374-.138.75-.29 1.127-.454 4.152-1.807 6.974-4.52 8.393-7.002 1.422-2.489 1.15-4.056.823-4.767-.328-.71-1.352-1.95-4.212-2.575-2.852-.624-6.816-.384-10.968 1.423a21.464 21.464 0 00-2.976 1.578 98.376 98.376 0 007.814 11.797z" fill="#E95A4A"/><path fill-rule="evenodd" clip-rule="evenodd" d="M61.47 20.718c-3.064 3.646-5.737 7.65-7.989 11.893l-.09.17C55.45 39.69 59.4 46.13 66.39 51.289c4.043 2.986 12.216 7.834 21.609 7.441 8.941-.373 20.273-5.58 30.8-25.312 6.982-14.694 7.9-23.81 6.555-29.446A67.274 67.274 0 00108.719.764c2.801 3.965 4.047 11.268 1.58 24.27-7.271 31.378-26.336 26.493-32.434 24.005-11.891-4.852-15.166-17.03-16.373-27.229a5.71 5.71 0 01-.023-1.092zM101.083.717c-1.736.09-3.467.25-5.188.48 4.737 3.134 7.602 9.67 6.827 16.85-1.026 9.522-8.06 16.572-15.712 15.747-7.65-.825-13.021-9.212-11.995-18.733.187-1.73.571-3.377 1.122-4.91-3.3 2.116-6.151 4.32-8.12 6.418-2.289 2.44-2.594 3.864-2.525 4.442 1.182 9.99 4.242 20.152 14.1 24.175 2.778 1.133 7.938 2.534 12.935.679 4.559-1.693 10.401-6.67 13.834-21.409 2.656-14.07.503-19.702-1.622-21.902-.984-1.02-2.242-1.59-3.656-1.837zm28.698 4.881c.809 6.855-1.023 16.39-7.338 29.656-22.023 41.371-49.884 25.66-58.477 19.317-6.408-4.73-10.497-10.41-13.013-16.463-2.749 7.014-3.936 14.45-3.738 22.007a55.328 55.328 0 005.929 5.062c2.585 1.914 7.83 4.536 14.659 6.508 6.77 1.956 14.796 3.184 22.885 2.561 8.064-.62 16.101-3.07 23.099-8.39 6.98-5.307 13.199-13.676 17.313-26.603 3.869-12.157 6.026-21.848 6.954-29.58a65.443 65.443 0 00-8.273-4.075zm12.076 6.477c-1.086 7.783-3.282 17.143-6.869 28.415-17.315 54.41-71.893 37.134-84.273 27.965a61.582 61.582 0 01-3.068-2.426c.665 5.582 2.052 11.186 4.09 16.692 6.88 18.586 17.594 37.586 36.785 44.55 19.9 7.22 41.734 1.642 57.699-10.267 14.793-11.035 19.726-29.432 20.347-47.954.614-18.32-2.968-37.499-17.036-50.799a62.273 62.273 0 00-7.675-6.176zM83.575 5.906c-2.259 2.066-4.042 5.325-4.502 9.592-.88 8.154 3.748 13.74 8.376 14.24 4.627.498 10.339-3.973 11.218-12.128.88-8.154-3.748-13.74-8.376-14.24a6.785 6.785 0 00-1.308-.011 94.181 94.181 0 00-5.408 2.547z" fill="#7DE3FB"/><g filter="url(#filter0_dddddd)"><path fill-rule="evenodd" clip-rule="evenodd" d="M66.93 100.631c-5.152 2.238-8.38 7.005-10.2 12.267-1.676 4.846-1.383 9.982.932 14.532 2.481 4.877 6.284 9.423 11.732 10.364 5.547.957 10.704-2.142 15.033-5.745 4.632-3.856 8.977-8.473 9.21-14.435.26-6.676-2.312-13.677-7.975-17.278-5.506-3.501-12.7-2.323-18.731.295z" fill="#FBC042"/></g><path d="M83.43 117.208c-.272 4.54-7.993 8.76-11.82 10.302-8.796-7.818-7.153-14.732-5.232-17.211 2.274-3.091 6.31-.761 8.978 2.247 2.796-2.3 8.415-1.013 8.074 4.662z" fill="#FEFEFE"/><path d="M44.39 101.643c-6.233-6.001-20.8-17.813-29.196-17.054-8.395.76 15.966 11.685 29.197 17.054zm-3.306 3.032c-9.398-1.039-30.476-1.765-39.595 3.636s22.598-.174 39.596-3.636zm4.947 6.765c-9.282 1.802-29.623 7.373-36.725 15.24s21.525-6.882 36.725-15.24z" fill="#FABF42"/></g><defs><clipPath id="clip0"><path fill="#fff" d="M0 0h204v275H0z"/></clipPath><filter id="filter0_dddddd" x="-165.57" y="-26.849" width="480.613" height="479.954" filterUnits="userSpaceOnUse" color-interpolation-filters="sRGB"><feFlood flood-opacity="0" result="BackgroundImageFix"/><feColorMatrix in="SourceAlpha" values="0 0 0 0 0 0 0 0 0 0 0 0 0 0 0 0 0 0 127 0"/><feOffset dy="1.541"/><feGaussianBlur stdDeviation="2.992"/><feColorMatrix values="0 0 0 0 0 0 0 0 0 0 0 0 0 0 0 0 0 0 0.01 0"/><feBlend in2="BackgroundImageFix" result="effect1_dropShadow"/><feColorMatrix in="SourceAlpha" values="0 0 0 0 0 0 0 0 0 0 0 0 0 0 0 0 0 0 127 0"/><feOffset dy="4.522"/><feGaussianBlur stdDeviation="7.191"/><feColorMatrix values="0 0 0 0 0 0 0 0 0 0 0 0 0 0 0 0 0 0 0.0121168 0"/><feBlend in2="effect1_dropShadow" result="effect2_dropShadow"/><feColorMatrix in="SourceAlpha" values="0 0 0 0 0 0 0 0 0 0 0 0 0 0 0 0 0 0 127 0"/><feOffset dy="9.878"/><feGaussianBlur stdDeviation="13.54"/><feColorMatrix values="0 0 0 0 0 0 0 0 0 0 0 0 0 0 0 0 0 0 0.015 0"/><feBlend in2="effect2_dropShadow" result="effect3_dropShadow"/><feColorMatrix in="SourceAlpha" values="0 0 0 0 0 0 0 0 0 0 0 0 0 0 0 0 0 0 127 0"/><feOffset dy="19.608"/><feGaussianBlur stdDeviation="24.153"/><feColorMatrix values="0 0 0 0 0 0 0 0 0 0 0 0 0 0 0 0 0 0 0.0178832 0"/><feBlend in2="effect3_dropShadow" result="effect4_dropShadow"/><feColorMatrix in="SourceAlpha" values="0 0 0 0 0 0 0 0 0 0 0 0 0 0 0 0 0 0 127 0"/><feOffset dy="39.205"/><feGaussianBlur stdDeviation="45.176"/><feColorMatrix values="0 0 0 0 0 0 0 0 0 0 0 0 0 0 0 0 0 0 0.0215656 0"/><feBlend in2="effect4_dropShadow" result="effect5_dropShadow"/><feColorMatrix in="SourceAlpha" values="0 0 0 0 0 0 0 0 0 0 0 0 0 0 0 0 0 0 127 0"/><feOffset dy="95.329"/><feGaussianBlur stdDeviation="108.134"/><feColorMatrix values="0 0 0 0 0 0 0 0 0 0 0 0 0 0 0 0 0 0 0.03 0"/><feBlend in2="effect5_dropShadow" result="effect6_dropShadow"/><feBlend in="SourceGraphic" in2="effect6_dropShadow" result="shape"/></filter></defs></svg>