<svg width="251" height="321" viewBox="0 0 251 321" fill="none" xmlns="http://www.w3.org/2000/svg"><g clip-path="url(#clip0)"><path fill-rule="evenodd" clip-rule="evenodd" d="M114.776 318.167c-15.62-13.053-27.401-29.813-30.62-52.005-.591-4.068-.33-12.455 2.207-22.737 2.492-10.098 6.952-21.073 13.922-30.579 6.9-9.412 16.182-17.303 28.595-21.797 12.424-4.498 28.978-5.95 50.983-.859 8.471 1.96 16.128 3.957 23.044 5.977.072 2.272.07 4.532-.002 6.78-6.5-1.491-13.954-2.708-22.482-3.587-80.039-4.923-79.475 45.653-77.059 62.504 3.13 21.826 16.302 36.631 31.803 47.162-6.497 3.932-13.297 7.079-20.391 9.141zm-15.78 2.656c-13.713-13.551-24.121-30.698-27.318-52.733-3.525-24.299 15.569-112.107 111.24-89.97a452.177 452.177 0 0118.804 4.754c-4.158-29.816-17.796-57.912-42.086-74.934-27.293-19.128-62.289-24.555-92.809-12.655-29.499 11.501-46.87 40.507-57.384 71.214-10.63 31.046-14.684 65.092.713 94.313 16.616 31.536 46.028 56.981 80.518 59.855a64.67 64.67 0 008.322.156zm47.34-19.504c-15.497-9.525-27.773-22.4-30.492-41.362-1.078-7.519-1.322-20.529 5.59-30.747 6.117-9.043 20.592-19.724 57.758-17.492 8.973.935 16.408 2.233 22.564 3.747a108.498 108.498 0 01-3.069 13.944c-3.762-1.734-8.064-3.467-12.971-5.188-52.939-16.417-61.331 13.296-62.629 23.573-2.532 20.038 12.995 34.608 27.259 44.744 1.23.874 2.67 1.479 4.279 1.85a149.52 149.52 0 01-8.289 6.931zm21.07-19.571a42.625 42.625 0 01-4.383 1.095c-2.703.508-3.956.395-4.348.332-13.795-9.865-24.031-20.977-22.316-34.552.547-4.325 2.446-10.407 7.171-13.952 3.578-2.684 13.042-6.956 37.033.435 5.783 2.038 10.4 4.002 14.085 5.841-.19.461-.383.921-.579 1.38a40.453 40.453 0 00-4.14-2.089c-15.092-6.567-31.434-2.994-36.5 7.983-4.86 10.53 2.423 24.049 16.351 30.929-.785.871-1.576 1.737-2.374 2.598zm10.792-12.554a28.977 28.977 0 01-1.377-.557c-5.361-2.333-9.019-5.842-10.867-9.075-1.851-3.24-1.529-5.342-1.062-6.353.467-1.012 1.868-2.644 5.591-3.458 3.714-.812 8.846-.496 14.207 1.837a27.662 27.662 0 013.826 2.028 125.962 125.962 0 01-10.318 15.578z" fill="#FEC343"/><path fill-rule="evenodd" clip-rule="evenodd" d="M166.403 19.718c3.063 3.646 5.737 7.65 7.988 11.892l.091.172c-2.061 6.908-6.011 13.347-12.999 18.506-4.044 2.986-12.217 7.834-21.609 7.441-8.942-.373-20.274-5.58-30.801-25.312-6.982-14.694-7.9-23.81-6.554-29.446a67.265 67.265 0 0116.635-3.207c-2.802 3.965-4.047 11.268-1.581 24.27 7.271 31.378 26.337 26.493 32.435 24.005 11.891-4.852 15.166-17.03 16.373-27.229.043-.36.049-.724.022-1.092zM126.789-.283c1.736.09 3.467.25 5.187.48-4.737 3.134-7.601 9.67-6.827 16.85 1.027 9.522 8.061 16.572 15.712 15.747 7.651-.825 13.022-9.212 11.995-18.733a21.295 21.295 0 00-1.121-4.91c3.3 2.116 6.151 4.32 8.119 6.418 2.289 2.44 2.594 3.864 2.526 4.442-1.183 9.99-4.242 20.152-14.101 24.175-2.777 1.133-7.937 2.534-12.934.679-4.559-1.693-10.401-6.67-13.834-21.409-2.657-14.07-.503-19.702 1.622-21.902.984-1.02 2.242-1.59 3.656-1.837zM98.09 4.598c-.809 6.855 1.023 16.39 7.339 29.656 22.022 41.371 49.883 25.66 58.477 19.317 6.408-4.73 10.497-10.41 13.012-16.463 2.749 7.014 3.936 14.45 3.739 22.007a55.313 55.313 0 01-5.929 5.062c-2.585 1.914-7.83 4.536-14.659 6.508-6.77 1.956-14.797 3.184-22.885 2.561-8.064-.62-16.102-3.07-23.1-8.39-6.979-5.307-13.199-13.676-17.312-26.603-3.87-12.157-6.026-21.848-6.955-29.58a65.496 65.496 0 018.273-4.075zm-12.075 6.477c1.086 7.783 3.282 17.143 6.869 28.415 17.314 54.41 71.893 37.134 84.272 27.965 1.067-.79 2.089-1.6 3.069-2.426-.665 5.582-2.052 11.186-4.091 16.692-6.88 18.586-17.593 37.586-36.784 44.55-19.901 7.22-41.734 1.642-57.7-10.267-14.793-11.035-19.726-29.432-20.347-47.954-.613-18.32 2.969-37.5 17.037-50.8a62.205 62.205 0 017.675-6.176zm58.282-6.169c2.259 2.066 4.043 5.325 4.503 9.592.879 8.154-3.748 13.74-8.376 14.24-4.628.498-10.339-3.973-11.218-12.128-.88-8.154 3.748-13.74 8.375-14.24.429-.046.866-.05 1.308-.011a94.04 94.04 0 015.408 2.547z" fill="#7DE3FB"/><g filter="url(#filter0_dddddd)"><path fill-rule="evenodd" clip-rule="evenodd" d="M175.201 97.365c6.59 2.861 10.718 8.958 13.045 15.687 2.143 6.197 1.768 12.766-1.192 18.586-3.173 6.236-8.036 12.05-15.004 13.253-7.093 1.224-13.689-2.739-19.225-7.347-5.924-4.932-11.481-10.836-11.778-18.461-.333-8.538 2.956-17.491 10.198-22.096 7.042-4.478 16.242-2.971 23.956.378z" fill="#E95A4A"/></g><path d="M156.475 122.64l1.892-.333.29 1.791-2.229.362.38 2.339 2.229-.361s.191 3.653.665 4.101c.746.705 2.526 0 2.764-.448.432-.815-.666-4.102-.666-4.102l7.807-1.01-.38-2.339-7.806 1.01-.291-1.791 5.319-.863c2.942-.477 4.899-1.388 5.836-2.755.937-1.367 1.263-2.932.981-4.665-.468-2.888-2.692-5.163-5.789-5.076-.732 0-1.853-.016-3.249.21 0 0-6.921.6-7.806 1.611-.74.845.147 3.021.454 4.91.306 1.89 1.116 4.766 1.116 4.766l-2.31.503.793 2.14zm3.099-10.37c.536-.462 3.876-.563 5.154-.77 1.277-.207 2.285-.378 2.749-.334 1.517.139 2.645 1.26 2.921 2.964.38 2.34-.708 3.91-4.303 4.493l-5.349.868s-.826-2.425-1.055-3.835c-.229-1.41-.963-2.656-.117-3.386z" fill="#fff"/><path d="M205.991 110.433c6.234-6 20.801-17.812 29.197-17.053 8.395.76-15.967 11.685-29.197 17.053zm3.307 3.032c9.399-1.038 30.476-1.764 39.595 3.637s-22.597-.174-39.595-3.637zm-4.947 6.766c9.282 1.802 29.623 7.373 36.725 15.24s-21.525-6.882-36.725-15.24z" fill="#E95A4A"/></g><defs><clipPath id="clip0"><path fill="#fff" d="M0 0h251v321H0z"/></clipPath><filter id="filter0_dddddd" x="-81.793" y="-31.94" width="494.021" height="493.177" filterUnits="userSpaceOnUse" color-interpolation-filters="sRGB"><feFlood flood-opacity="0" result="BackgroundImageFix"/><feColorMatrix in="SourceAlpha" values="0 0 0 0 0 0 0 0 0 0 0 0 0 0 0 0 0 0 127 0"/><feOffset dy="1.541"/><feGaussianBlur stdDeviation="2.992"/><feColorMatrix values="0 0 0 0 0 0 0 0 0 0 0 0 0 0 0 0 0 0 0.01 0"/><feBlend in2="BackgroundImageFix" result="effect1_dropShadow"/><feColorMatrix in="SourceAlpha" values="0 0 0 0 0 0 0 0 0 0 0 0 0 0 0 0 0 0 127 0"/><feOffset dy="4.522"/><feGaussianBlur stdDeviation="7.191"/><feColorMatrix values="0 0 0 0 0 0 0 0 0 0 0 0 0 0 0 0 0 0 0.0121168 0"/><feBlend in2="effect1_dropShadow" result="effect2_dropShadow"/><feColorMatrix in="SourceAlpha" values="0 0 0 0 0 0 0 0 0 0 0 0 0 0 0 0 0 0 127 0"/><feOffset dy="9.878"/><feGaussianBlur stdDeviation="13.54"/><feColorMatrix values="0 0 0 0 0 0 0 0 0 0 0 0 0 0 0 0 0 0 0.015 0"/><feBlend in2="effect2_dropShadow" result="effect3_dropShadow"/><feColorMatrix in="SourceAlpha" values="0 0 0 0 0 0 0 0 0 0 0 0 0 0 0 0 0 0 127 0"/><feOffset dy="19.608"/><feGaussianBlur stdDeviation="24.153"/><feColorMatrix values="0 0 0 0 0 0 0 0 0 0 0 0 0 0 0 0 0 0 0.0178832 0"/><feBlend in2="effect3_dropShadow" result="effect4_dropShadow"/><feColorMatrix in="SourceAlpha" values="0 0 0 0 0 0 0 0 0 0 0 0 0 0 0 0 0 0 127 0"/><feOffset dy="39.205"/><feGaussianBlur stdDeviation="45.176"/><feColorMatrix values="0 0 0 0 0 0 0 0 0 0 0 0 0 0 0 0 0 0 0.0215656 0"/><feBlend in2="effect4_dropShadow" result="effect5_dropShadow"/><feColorMatrix in="SourceAlpha" values="0 0 0 0 0 0 0 0 0 0 0 0 0 0 0 0 0 0 127 0"/><feOffset dy="95.329"/><feGaussianBlur stdDeviation="108.134"/><feColorMatrix values="0 0 0 0 0 0 0 0 0 0 0 0 0 0 0 0 0 0 0.03 0"/><feBlend in2="effect5_dropShadow" result="effect6_dropShadow"/><feBlend in="SourceGraphic" in2="effect6_dropShadow" result="shape"/></filter></defs></svg>