<svg width="477" height="547" viewBox="0 0 477 547" fill="none" xmlns="http://www.w3.org/2000/svg"><g clip-path="url(#clip0)"><path fill-rule="evenodd" clip-rule="evenodd" d="M46.164 481.188a13.771 13.771 0 003.822-.304c28.871-6.478 63.043-20.501 74.87-62.39 6.066-21.481 16.776-87.979-73.915-105.717-17.15-2.506-30.768-2.621-41.533-1.001 2.973-9.688 6.863-19.335 11.736-28.873a233.95 233.95 0 019.956-17.556c11.442 2.814 24.975 7.693 40.993 15.339 57.041 31.054 74.355 68.468 77.037 100.332 2.787 33.114-10.024 62.887-17.856 77.442-14.624 27.18-33.563 41.981-53.408 50.015-11.777-7.839-22.422-16.934-31.702-27.287zm45.577 35.665c19.329-9.81 37.247-25.974 51.232-51.967 16.638-30.924 56.731-130.065-64.94-196.098-14.593-6.984-27.58-11.924-39.138-15.142a253.575 253.575 0 0119.452-24.148c8.934 2.202 18.53 4.814 28.834 7.872 36.804 10.921 61.383 29.958 77.651 52.621 16.403 22.85 24.891 50.153 28.077 78.149 3.185 27.996 1.001 56.157-3.478 80.07-4.516 24.102-11.183 42.959-16.327 52.486-8.033 14.88-16.198 27.181-24.474 37.354-20.511-4.725-39.673-11.789-56.889-21.197zm71.562 24.14c7.337-9.693 14.499-20.904 21.491-33.855 24.053-44.553 64.102-235.672-93.948-282.57a686.98 686.98 0 00-21.833-6.105c30.349-29.611 68.412-52.392 109.974-63.904 66.012-18.285 127.576 3.182 178.258 35.245 51.241 32.416 93.446 76.975 94.94 137.589 1.612 65.42-26.533 137.171-87.057 182.213-58.368 43.438-133.78 42.686-200.302 31.644a241.63 241.63 0 01-1.523-.257zM5.67 326.13c9.218-2.327 22.85-3.075 43.033-.154 41.557 8.204 57.087 26.678 63.051 42.928 6.445 17.562 3.106 36.21.357 45.945-9.755 34.55-37.493 46.805-64.975 52.971a.744.744 0 01-.096.009 2.22 2.22 0 01-.402-.038c-.422-.071-1.146-.27-2.197-.786-2.19-1.075-5.075-3.167-8.549-6.617-5.609-5.571-11.576-13.491-17.454-22.754a199.97 199.97 0 01-1.513-3.467 51.41 51.41 0 0011.535 1.887c27.32 1.337 50.327-19.002 51.388-45.428s-20.226-48.932-47.546-50.268c-11.06-.542-21.415 2.47-29.892 8.001a170.52 170.52 0 013.26-22.229zm4.841 90.742c-5.156-16.236-8.147-33.16-8.588-50.375 6.843-8.229 17.61-13.403 29.844-12.804 20.466 1.001 35.552 17.693 34.806 36.284-.746 18.59-17.112 33.743-37.578 32.742-6.908-.338-13.203-2.464-18.484-5.847z" fill="#E95A4A"/><path fill-rule="evenodd" clip-rule="evenodd" d="M447.691 47.208a151.303 151.303 0 013.993 5.02c6.551 8.6 11.722 17.922 15.587 27.77-3.944 7.093-8.935 13.974-15.155 20.544-4.21 4.447-13.162 11.077-25.288 16.979-12.021 5.85-26.627 10.721-41.951 12.105-15.278 1.379-31.101-.717-45.916-8.581-14.774-7.843-29.126-21.73-41.023-44.92C287.086 54.97 280 37.702 275.703 23.583a152.052 152.052 0 0114.095-7.905c1.648 12.75 8.376 29.104 23.024 50.123 54.635 71.414 101.609 32.817 115.611 18.073 10.823-11.397 16.656-23.935 19.258-36.667zm-6.637-7.47c-1.673 13.569-6.971 26.841-18.219 38.686-6.589 6.937-20.291 18.713-37.978 20.946-16.838 2.126-39.718-4.149-65.819-38.202-15.435-22.182-21.019-37.886-21.801-48.91a150.514 150.514 0 0127.907-8.853c-1.279 8.671.387 21.19 7.057 39.183 23.804 57.154 57.858 41.857 68.449 35.21 19.833-12.448 22.611-35.183 21.86-54.42 6.632 4.858 12.832 10.353 18.544 16.36zM412.386 16.67c1.77 1.977 2.234 3.362 2.274 4.1 1.04 19.303-1.374 39.528-18.496 50.274-4.823 3.027-14.014 7.318-23.96 5.385-9.075-1.763-21.615-9.342-32.83-36.181-7.681-20.779-7.76-32.19-5.801-38.377A143.009 143.009 0 01345.834.545c-3.572 7.364-4.444 16.867-1.743 26.406 5.017 17.716 20.463 28.846 34.498 24.858 14.036-3.987 21.347-21.581 16.33-39.298a42.254 42.254 0 00-1.816-5.13 119.36 119.36 0 0119.283 9.289zM382.315 3.946c2.163 2.892 3.966 6.456 5.162 10.68 4.297 15.172-2.536 27.224-11.025 29.636-8.489 2.411-20.623-4.253-24.92-19.425-2.919-10.309-.7-19.178 3.685-24.56 9.373.104 18.429 1.38 27.098 3.669zM268.999 28.083c4.563 14.392 11.71 31.417 22.073 51.618 50.076 97.61 146.49 47.58 166.65 26.284 5.005-5.286 9.267-10.754 12.869-16.355 6.667 22.323 7.158 46.882 2.271 71.616-8.584 43.444-25.396 89.329-64.896 112.25-40.961 23.767-90.58 20.287-129.578.596-36.133-18.244-53.285-56.55-61.061-96.854-7.692-39.865-6.516-83.289 19.599-118.034 9.073-12.073 19.968-22.518 32.073-31.121z" fill="#7DE3FB"/><g filter="url(#filter0_dddddd)"><path fill-rule="evenodd" clip-rule="evenodd" d="M205.377 112.696c12.013 2.004 21.32 10.445 27.93 20.7 6.088 9.443 8.192 20.566 5.738 31.527-2.63 11.745-8.212 23.497-19.164 28.437-11.148 5.027-23.625 1.187-34.629-4.176-11.777-5.74-23.352-13.259-26.998-25.862-4.082-14.113-2.385-30.443 7.607-41.178 9.715-10.437 25.456-11.793 39.516-9.448z" fill="#FEC343"/></g><path d="M158.04 108.983c.913-6.597 1.671-21.01-2.602-25.891-4.273-4.882-.045 15.226 2.602 25.891zm-3.384-.685c-3.608-6.32-12.697-19.767-20.186-22.998-7.489-3.231 10.337 13.986 20.186 22.998zm-1.971 6.14c-5.324-4.961-17.998-15.1-26.109-15.958-8.111-.86 14.026 10.281 26.109 15.958z" fill="#FEC343"/><ellipse rx="20.823" ry="21.088" transform="matrix(.99804 -.0252 .02448 1.0013 199.605 153.856)" fill="#FEFEFE"/><ellipse rx="2.776" ry="2.812" transform="matrix(.99804 -.0252 .02448 1.0013 192.575 149.808)" fill="#DFAE58"/><ellipse rx="2.776" ry="2.812" transform="matrix(.99804 -.0252 .02448 1.0013 206.429 149.458)" fill="#DFAE58"/><path d="M190.01 158.324s1.284 8.419 9.905 8.201c8.621-.218 9.492-8.691 9.492-8.691" stroke="#DFAE58" stroke-width="2.35" stroke-linecap="round"/></g><defs><clipPath id="clip0"><path fill="#fff" d="M0 0h477v547H0z"/></clipPath><filter id="filter0_dddddd" x="-74.236" y="-17.146" width="544.71" height="544.847" filterUnits="userSpaceOnUse" color-interpolation-filters="sRGB"><feFlood flood-opacity="0" result="BackgroundImageFix"/><feColorMatrix in="SourceAlpha" values="0 0 0 0 0 0 0 0 0 0 0 0 0 0 0 0 0 0 127 0"/><feOffset dy="1.642"/><feGaussianBlur stdDeviation="3.188"/><feColorMatrix values="0 0 0 0 0 0 0 0 0 0 0 0 0 0 0 0 0 0 0.01 0"/><feBlend in2="BackgroundImageFix" result="effect1_dropShadow"/><feColorMatrix in="SourceAlpha" values="0 0 0 0 0 0 0 0 0 0 0 0 0 0 0 0 0 0 127 0"/><feOffset dy="4.818"/><feGaussianBlur stdDeviation="7.662"/><feColorMatrix values="0 0 0 0 0 0 0 0 0 0 0 0 0 0 0 0 0 0 0.0121168 0"/><feBlend in2="effect1_dropShadow" result="effect2_dropShadow"/><feColorMatrix in="SourceAlpha" values="0 0 0 0 0 0 0 0 0 0 0 0 0 0 0 0 0 0 127 0"/><feOffset dy="10.524"/><feGaussianBlur stdDeviation="14.427"/><feColorMatrix values="0 0 0 0 0 0 0 0 0 0 0 0 0 0 0 0 0 0 0.015 0"/><feBlend in2="effect2_dropShadow" result="effect3_dropShadow"/><feColorMatrix in="SourceAlpha" values="0 0 0 0 0 0 0 0 0 0 0 0 0 0 0 0 0 0 127 0"/><feOffset dy="20.891"/><feGaussianBlur stdDeviation="25.735"/><feColorMatrix values="0 0 0 0 0 0 0 0 0 0 0 0 0 0 0 0 0 0 0.0178832 0"/><feBlend in2="effect3_dropShadow" result="effect4_dropShadow"/><feColorMatrix in="SourceAlpha" values="0 0 0 0 0 0 0 0 0 0 0 0 0 0 0 0 0 0 127 0"/><feOffset dy="41.772"/><feGaussianBlur stdDeviation="48.133"/><feColorMatrix values="0 0 0 0 0 0 0 0 0 0 0 0 0 0 0 0 0 0 0.0215656 0"/><feBlend in2="effect4_dropShadow" result="effect5_dropShadow"/><feColorMatrix in="SourceAlpha" values="0 0 0 0 0 0 0 0 0 0 0 0 0 0 0 0 0 0 127 0"/><feOffset dy="101.57"/><feGaussianBlur stdDeviation="115.214"/><feColorMatrix values="0 0 0 0 0 0 0 0 0 0 0 0 0 0 0 0 0 0 0.03 0"/><feBlend in2="effect5_dropShadow" result="effect6_dropShadow"/><feBlend in="SourceGraphic" in2="effect6_dropShadow" result="shape"/></filter></defs></svg>