<svg width="632" height="623" viewBox="0 0 632 623" fill="none" xmlns="http://www.w3.org/2000/svg"><path fill-rule="evenodd" clip-rule="evenodd" d="M265.477 593.987a13.812 13.812 0 01-2.699-2.723c-17.657-23.744-34.41-56.663-16.05-96.128 9.416-20.238 44.675-77.627 124.985-31.912 14.634 9.287 25.03 18.083 32.133 26.333 4.066-9.281 7.411-19.131 9.939-29.539a234.15 234.15 0 003.906-19.801c-10.509-5.331-23.948-10.461-41.077-15.114-63.491-13.671-101.02 3.392-123.838 25.794-23.713 23.281-33.424 54.204-36.983 70.345-6.645 30.141-1.945 53.714 7.856 72.748 14.039 1.741 28.041 1.791 41.828-.003zm-57.81-2.699c-8.251-20.043-11.288-43.983-4.933-72.807 7.561-34.292 41.844-135.588 177.139-106.27 15.616 4.225 28.683 8.952 39.542 14.053a253.483 253.483 0 001.008-30.993c-8.208-4.158-17.184-8.437-26.99-12.842-35.019-15.73-66.066-17.334-93.18-10.769-27.338 6.62-51.582 21.777-72.258 40.919-20.677 19.141-37.391 41.911-49.595 62.958-12.3 21.213-19.546 39.855-21.862 50.432-3.618 16.518-5.454 31.167-5.816 44.277 18.628 9.798 37.759 16.943 56.945 21.042zm-69.987-28.383c.762-12.132 2.646-25.302 5.795-39.679 10.831-49.459 105.146-220.442 255.532-152.891a688.319 688.319 0 0120.531 9.615c-3.688-42.24-17.678-84.336-41.67-120.173-38.106-56.92-98.772-80.808-158.101-89.567-59.984-8.854-121.04-2.612-161.711 42.356C14.159 261.099-11.311 333.842 5.18 407.463c15.904 70.997 73.554 119.62 131.177 154.644.441.267.881.533 1.322.798zm259.636-60.029c-5.469-7.777-15.313-17.236-32.517-28.188-36.849-20.89-60.671-17.018-75.792-8.591-16.34 9.106-25.974 25.418-30.241 34.59-15.143 32.551-2.113 59.933 14.694 82.534a.52.52 0 00.068.069c.05.045.151.127.329.234.366.221 1.045.543 2.178.837 2.361.613 5.912.91 10.795.561 7.886-.563 17.575-2.675 28.073-5.861a201.248 201.248 0 003.408-1.64 51.45 51.45 0 01-9.974-6.094c-21.579-16.808-25.75-47.232-9.316-67.954 16.434-20.722 47.249-23.894 68.828-7.086 8.737 6.805 14.62 15.842 17.437 25.563a170.436 170.436 0 0012.03-18.974zm-62.862 65.619c14.499-8.942 27.806-19.819 39.37-32.579.182-10.701-4.606-21.646-14.268-29.172-16.165-12.591-38.489-9.781-50.05 4.796-11.56 14.578-9.041 36.739 7.124 49.33 5.457 4.25 11.615 6.745 17.824 7.625z" fill="#E95A4A"/><path fill-rule="evenodd" clip-rule="evenodd" d="M244.23 3.131a154.32 154.32 0 00-6.301 1.2C227.353 6.577 217.354 10.27 208 15.211c-1.638 7.95-2.343 16.422-1.914 25.46.29 6.116 2.751 16.98 8.092 29.363 5.294 12.276 13.188 25.496 23.9 36.54 10.681 11.012 24.041 19.745 40.399 23.448 16.315 3.693 36.251 2.529 60.396-7.288 22.024-8.954 38.659-17.419 51.126-25.319a152.119 152.119 0 00-5.527-15.185c-9.565 8.588-25.334 16.596-50.147 22.972-87.995 18.49-98.422-41.407-99.417-61.716-.769-15.699 2.99-29.007 9.322-40.355zm9.903-1.332c-7.583 11.376-12.224 24.892-11.425 41.207.468 9.556 3.172 27.42 15.122 40.65 11.375 12.594 32.81 22.763 74.807 13.979 26.169-6.745 40.644-15.005 48.428-22.85a150.57 150.57 0 00-15.376-24.915c-4.688 7.407-14.117 15.809-30.909 25.096-55.324 27.792-71.157-6.016-74.849-17.963-6.912-22.373 5.812-41.416 18.93-55.507-8.195-.644-16.479-.524-24.728.303zm36.777 1.216c-2.631.344-3.887 1.091-4.397 1.624-13.381 13.953-24.744 30.857-18.776 50.17 1.681 5.442 5.848 14.689 14.647 19.712 8.028 4.584 22.478 7.019 48.485-6.008 19.377-10.739 26.88-19.336 29.431-25.304a143.087 143.087 0 00-8.429-9.003c-2.096 7.911-7.633 15.684-15.903 21.152-15.36 10.155-34.326 8.515-42.364-3.663-8.037-12.178-2.101-30.282 13.258-40.438a42.193 42.193 0 014.723-2.704c-6.723-2.474-13.642-4.307-20.675-5.538zm31.093 9.971c-3.527.782-7.218 2.307-10.88 4.728-13.153 8.697-15.836 22.29-10.975 29.655 4.861 7.365 18.405 10.229 31.558 1.532 8.938-5.91 13.041-14.079 13.229-21.019a110.8 110.8 0 00-22.932-14.896zm70.143 92.213c-12.847 7.931-29.37 16.174-50.402 24.725-101.627 41.319-142.07-59.494-143.458-88.786-.345-7.271-.008-14.195.915-20.79-19.615 12.57-36.007 30.865-48.437 52.8-21.833 38.528-39.022 84.272-24.034 127.412 15.542 44.734 55.421 74.463 97.824 84.977 39.288 9.742 77.275-8.104 109.461-33.58 31.834-25.197 59.269-58.878 62.14-102.248.998-15.07-.446-30.094-4.009-44.51z" fill="#7DE3FB"/><g filter="url(#filter0_dddddd)"><path fill-rule="evenodd" clip-rule="evenodd" d="M348.145 208.24c-11.301 4.54-18.576 14.784-22.828 26.22-3.915 10.531-3.579 21.846 1.174 32.023 5.094 10.906 13.072 21.183 24.829 23.653 11.968 2.513 23.329-3.919 32.922-11.523 10.267-8.138 19.956-17.968 20.807-31.061.952-14.661-4.215-30.244-16.281-38.579-11.732-8.105-27.396-6.046-40.623-.733z" fill="#FEC343"/></g><path d="M340.661 246.939c.602 10.027 17.653 19.345 26.103 22.752 19.425-17.267 15.797-32.535 11.555-38.01-5.022-6.827-13.937-1.68-19.827 4.963-6.175-5.08-18.583-2.239-17.831 10.295z" fill="#FEFEFE"/><path d="M423.475 238.896c3.611-5.595 12.439-17.014 18.862-17.927 6.423-.912-9.898 11.571-18.862 17.927zm3.011 1.688c6.858-2.436 22.518-6.7 30.302-4.263 7.784 2.436-16.958 3.857-30.302 4.263zm-2.511 5.94c7.272-.288 23.492.296 30.2 4.936 6.708 4.64-17.338-1.357-30.2-4.936z" fill="#FEC343"/><defs><filter id="filter0_dddddd" x="92.202" y="74.705" width="543.385" height="547.981" filterUnits="userSpaceOnUse" color-interpolation-filters="sRGB"><feFlood flood-opacity="0" result="BackgroundImageFix"/><feColorMatrix in="SourceAlpha" values="0 0 0 0 0 0 0 0 0 0 0 0 0 0 0 0 0 0 127 0"/><feOffset dy="1.642"/><feGaussianBlur stdDeviation="3.188"/><feColorMatrix values="0 0 0 0 0 0 0 0 0 0 0 0 0 0 0 0 0 0 0.01 0"/><feBlend in2="BackgroundImageFix" result="effect1_dropShadow"/><feColorMatrix in="SourceAlpha" values="0 0 0 0 0 0 0 0 0 0 0 0 0 0 0 0 0 0 127 0"/><feOffset dy="4.818"/><feGaussianBlur stdDeviation="7.662"/><feColorMatrix values="0 0 0 0 0 0 0 0 0 0 0 0 0 0 0 0 0 0 0.0121168 0"/><feBlend in2="effect1_dropShadow" result="effect2_dropShadow"/><feColorMatrix in="SourceAlpha" values="0 0 0 0 0 0 0 0 0 0 0 0 0 0 0 0 0 0 127 0"/><feOffset dy="10.524"/><feGaussianBlur stdDeviation="14.427"/><feColorMatrix values="0 0 0 0 0 0 0 0 0 0 0 0 0 0 0 0 0 0 0.015 0"/><feBlend in2="effect2_dropShadow" result="effect3_dropShadow"/><feColorMatrix in="SourceAlpha" values="0 0 0 0 0 0 0 0 0 0 0 0 0 0 0 0 0 0 127 0"/><feOffset dy="20.891"/><feGaussianBlur stdDeviation="25.735"/><feColorMatrix values="0 0 0 0 0 0 0 0 0 0 0 0 0 0 0 0 0 0 0.0178832 0"/><feBlend in2="effect3_dropShadow" result="effect4_dropShadow"/><feColorMatrix in="SourceAlpha" values="0 0 0 0 0 0 0 0 0 0 0 0 0 0 0 0 0 0 127 0"/><feOffset dy="41.772"/><feGaussianBlur stdDeviation="48.133"/><feColorMatrix values="0 0 0 0 0 0 0 0 0 0 0 0 0 0 0 0 0 0 0.0215656 0"/><feBlend in2="effect4_dropShadow" result="effect5_dropShadow"/><feColorMatrix in="SourceAlpha" values="0 0 0 0 0 0 0 0 0 0 0 0 0 0 0 0 0 0 127 0"/><feOffset dy="101.57"/><feGaussianBlur stdDeviation="115.214"/><feColorMatrix values="0 0 0 0 0 0 0 0 0 0 0 0 0 0 0 0 0 0 0.03 0"/><feBlend in2="effect5_dropShadow" result="effect6_dropShadow"/><feBlend in="SourceGraphic" in2="effect6_dropShadow" result="shape"/></filter></defs></svg>