<svg width="44" height="44" viewBox="0 0 44 44" fill="none" xmlns="http://www.w3.org/2000/svg"><g clip-path="url(#clip0)"><g clip-path="url(#clip1)" fill="#2E313B"><path d="M41.745 14.934c.28-.382.122-1.046-.418-1.14-2.976-.52-6.5.04-9.506.237-1.134.075-2.704.072-4.162.306a14.09 14.09 0 002.516-1.8c2.071-1.875 2.834-6.223.54-8.28-3.464-3.107-7.65 1.642-9.703 5.865-1.238-3.786-4.273-7.657-7.904-5.803-2.54 1.297-2.538 5.114-1.444 7.245.902 1.76 2.947 3.01 5.057 3.541-4.778-.208-9.56.02-14.345.106-.47.008-.837.464-.807.917.151 2.282-.112 5.241 1.497 7.08.042.047.09.086.143.114-.135.062-.27.12-.404.186-.442.22-.24.84.251.727 2.718-.628 5.454-.795 8.198-.799a.363.363 0 00.124 0c2.995.002 6 .194 9.006.2.359.001.768-.333.805-.7.208-2.005.738-4.831.015-6.751-.02-.054-.052-.092-.079-.136a.989.989 0 00.28.04 12.134 12.134 0 002.508-.294 2.027 2.027 0 00-.254.514c-.098.078-.15.204-.088.322-.129.637-.045 1.335-.026 1.996.039 1.31.149 2.613.398 3.899.127.652.891.684 1.11.172 2.658-.358 5.292-.77 7.97-.974 2.755-.21 5.333.306 8.044.397a.544.544 0 00.511-.257.49.49 0 00.27-.342c.266-1.245.494-2.478.558-3.752.043-.86.095-2.236-.66-2.835zm-27.066-2.81c-2.032-1.426-2.682-7.644.907-6.282 2.657 1.009 4.526 5.334 4.189 7.974h.007a4.45 4.45 0 00-.016.162c-1.884-.128-3.521-.755-5.087-1.854zm5.745 3.609c-.084-.205-.264-.362-.546-.415.09-.013.183-.022.271-.039a.748.748 0 00.302-.132c.009.205.078.41.203.577a.739.739 0 00-.23.009zm1.132-1.508c.002-.013.007-.024.009-.037a5.36 5.36 0 00.034-.382c.27-2.953 3.775-8.844 7.178-8.602 1.819.129 1.468 3.664 1.121 4.579-.462 1.223-1.674 2.064-2.713 2.738-1.616 1.047-3.7 1.64-5.63 1.704zm-.458 15.871c-.091-1.336-.273-2.663-.617-3.966-.098-.374-.514-.604-.879-.585-4.443.239-9.388-.379-13.449 1.801-.433.233-.303.798.033 1.031-.813 4.186-.038 8.529.251 12.738.036.518.468.848.965.848 4.015.002 7.997-.498 11.996-.783a.837.837 0 00.571-.261c.397.133.916-.062 1.003-.536.382-2.072.157-4.401.194-6.509.02-1.17.015-2.34-.053-3.506a.342.342 0 00-.015-.272zm18.796 1.77c-.25-1.59-.454-3.658-1.412-5.005.083-.043.161-.09.23-.143.325-.254.481-.855.073-1.133-.712-.485-1.641-.36-2.471-.405-1.945-.107-3.889-.207-5.836-.23-.512-.007-1.186-.037-1.913-.038-.025-.028-.263 0-.263 0l-.239.004s-1.847.103-2.66.35a.238.238 0 00-.278.089c-.747.274-1.351.708-1.653 1.393-1.144 2.593-.157 6.557.262 9.207.081.51.613 5.345 1.931 4.197a.63.63 0 00.619.364c4.607-.117 9.177-.669 13.693-1.577.387-.078.633-.554.608-.914a71.975 71.975 0 00-.691-6.16z"/></g></g><defs><clipPath id="clip0"><path fill="#fff" d="M.68.587h43v43h-43z"/></clipPath><clipPath id="clip1"><path transform="rotate(-3.664 .68 3.193)" fill="#fff" d="M.68 3.193h40.79v40.79H.68z"/></clipPath></defs></svg>