<svg width="87" height="54" viewBox="0 0 87 54" fill="none" xmlns="http://www.w3.org/2000/svg"><g clip-path="url(#clip0)"><path d="M82.161 36.604c-.352-2.497-1.376-5.055-2.553-7.246-1.003-1.865-1.85-5.133-3.979-6.067-2.171-.954-4.199-.185-6.26.82-.796.388-4.118 3.291-5.079 3.248.76-2.614 1.572-5.22 2.373-7.837.112-.366-.155-.72-.437-.89-5.388-3.253-11.68-3.927-17.809-4.669-7.839-.949-15.467-2.99-23.42-2.26a.832.832 0 00-.726.68 491.322 491.322 0 00-.828 4.996c-1.681-3.444-4.291-7.453-8.35-6.359-5.11 1.377-8.758 6.735-10.987 11.355-1.074 2.225-1.429 7.195 2.297 6.577 1.736-.289 3.272-1.756 4.61-3.48-.152 1.216.103 2.306 1.19 2.971 2.143 1.312 3.994-.528 5.291-2.65.4 2.216 1.84 3.606 4.027 2.553-.22 1.099-.432 2.197-.681 3.292-.34 1.496-1.266 4.108-.282 5.576l-.015-.003c-.983-.241-1.256 1.328-.29 1.58 5.462 1.428 11.138 1.57 16.727 2.211 7.681.881 15.349 2.747 22.953 4.14.393.073.906-.217.938-.666.16-2.294.474-4.549.886-6.781 1.862 2.182 4.268 1.219 5.813-.786.628 2.157 2 4.58 4.195 3.965 1.527-.428 2.204-1.496 2.464-2.8.773 1.749 1.798 3.32 3.169 4.15 3.849 2.329 5.179-2.667 4.763-5.62zM57.462 17.02c1.41.274 3.831.489 5.423 1.375-1.665 1.942-5.662 2.997-7.863 4.271-3.236 1.874-5.6 5.262-8.475 7.612-5.651 4.621-15.863-11.601-19.932-16.117 5.433-2.644 26.658 2.044 30.847 2.859zm-31.755-2.175c3.07 4.195 6.38 8.148 9.773 12.088-.8.53-1.527 1.278-2.258 1.852-1.402 1.101-2.862 2.125-4.324 3.137-1.442.999-2.928 1.918-4.427 2.818-.699.419-1.788.749-2.567 1.268 1.361-3.397 3.348-19.758 3.452-20.417a1.57 1.57 0 01.35-.746zm28.702 27.609c-10.825-1.983-22.24-2.538-32.926-5.035l.157-.156c.35.11.797-.104 1.115-.202 1.647-.51 3.216-1.513 4.695-2.394 1.948-1.162 3.827-2.44 5.661-3.782 1.045-.765 2.513-1.644 3.398-2.752 1.658 1.937 4.874 6.094 7.917 4.994 2.088-.755 3.785-2.074 5.383-3.546.23.575.762 1.166 1.037 1.558 1.01 1.442 2.054 2.859 3.078 4.29 1.088 1.522 2.191 3.031 3.242 4.581.395.583.78 1.174 1.147 1.776.004.007.006.015.01.021-.902.686-2.148.97-3.914.647zm5.078-2.048c-1.019-1.757-2.79-3.732-3.18-4.263a182.36 182.36 0 00-3.953-5.162c-.403-.51-1.062-1.654-1.753-2.135 1.724-1.662 3.378-3.442 5.33-4.825 1.396-.99 6.998-2.508 8.093-4.647.432.618.581 1.418.255 2.482a488.644 488.644 0 00-2.482 8.294c-.941 3.277-.87 7.664-2.31 10.256z" fill="#fff"/></g><defs><clipPath id="clip0"><path transform="rotate(10.382 7.92 .23)" fill="#fff" d="M7.92.229h80v40h-80z"/></clipPath></defs></svg>