<svg width="115" height="110" viewBox="0 0 115 110" fill="none" xmlns="http://www.w3.org/2000/svg"><path fill-rule="evenodd" clip-rule="evenodd" d="M12.159 4.374C5.33 4.988.195 10.806.359 17.66l1.374 57.08c.174 7.235 6.177 12.958 13.411 12.784l6.717-.161.665 21.412 20.687-21.926 14.97-.36 43.039-1.035c7.234-.174 12.956-6.18 12.782-13.413l-1.373-57.082c-.165-6.854-5.574-12.418-12.424-12.702-12.615-.524-32.153-1.194-44.071-.907-11.919.287-31.402 1.895-43.977 3.024z" fill="#FFDBDB"/><path d="M38.079 31.107c-4.275 9.09 6.228 25.438 12.014 32.476 25.322-5.851 29.452-20.991 28.351-27.83-1.138-8.398-11.43-8.15-19.782-5.14-2.987-7.418-15.24-10.868-20.583.494z" fill="#E95A4A"/></svg>