<svg width="49" height="51" viewBox="0 0 49 51" fill="none" xmlns="http://www.w3.org/2000/svg"><path fill-rule="evenodd" clip-rule="evenodd" d="M29.908 2.09c.006.028-.034.059-.087.07-.054.01-.093.04-.088.068.005.027-.034.058-.088.068-.053.011-.093.042-.087.07.005.026-.03.056-.077.066-.048.009-.11.067-.137.13-.028.061-.08.118-.115.125-.035.007-.273.33-.528.72-.255.39-.489.712-.518.718-.03.006-.12.117-.202.246-.082.129-.183.24-.225.25-.042.008-.073.037-.067.064.005.027-.034.058-.088.069-.053.01-.093.041-.087.068.005.027-.034.058-.088.069-.054.01-.093.041-.088.068.006.028-.024.057-.065.065-.098.019-.271.282-.251.38.008.043-.007.081-.034.087-.027.005-.04.049-.031.097.01.049-.02.129-.066.179-.046.05-.076.13-.066.178.01.048-.005.092-.032.097-.026.006-.04.05-.03.098.009.048-.021.128-.067.178-.046.05-.076.125-.068.168.008.042-.022.117-.068.167-.046.05-.077.121-.07.159.008.037-.04.143-.105.235-.066.092-.114.194-.107.226.006.033-.042.135-.107.227-.066.092-.114.193-.108.224.007.032-.094.214-.223.406-.13.192-.23.372-.224.401.013.068-1.102 1.76-1.17 1.773-.028.006-.189.223-.358.482-.169.26-.331.476-.36.482-.03.005-.174.196-.321.422-.148.227-.293.417-.322.423-.03.006-.14.143-.243.305-.103.162-.213.299-.243.305-.03.005-.157.17-.282.363-.126.195-.252.358-.28.364-.03.005-.508.7-1.064 1.544-.556.844-1.034 1.54-1.062 1.545-.029.005-.172.195-.32.422-.147.227-.291.417-.32.423-.03.006-.227.276-.439.6-.212.324-.41.594-.44.6-.03.006-.12.116-.202.245-.082.13-.178.24-.215.248-.036.007-.088.064-.116.126-.028.062-.081.118-.118.126-.037.007-.115.092-.174.188-.06.096-.138.181-.175.189-.037.007-.09.064-.117.125-.028.063-.081.12-.118.126-.037.008-.116.092-.174.189-.06.096-.134.18-.166.186-.032.007-.107.09-.165.187-.06.097-.138.181-.175.189-.037.007-.09.064-.117.126-.028.062-.085.119-.127.127-.042.009-.099.066-.127.128-.027.062-.09.12-.137.13-.047.01-.082.04-.077.066.006.027-.034.058-.087.069-.054.01-.093.041-.088.069.005.027-.056.062-.136.078-.143.028-.147.023-.195-.218-.027-.136-.071-.243-.098-.238-.027.006-.056-.03-.066-.078-.01-.048-.067-.111-.129-.14-.061-.028-.117-.08-.124-.116-.018-.09-.637-.503-.727-.485-.04.008-.079-.008-.084-.035-.005-.027-.075-.037-.156-.02-.08.015-.15.006-.156-.021-.005-.027-.097-.032-.204-.011-.107.021-.2.016-.205-.01-.005-.028-.075-.037-.156-.021-.08.015-.15.006-.155-.02-.006-.028-.098-.033-.205-.012-.107.021-.2.016-.204-.01-.006-.028-.076-.037-.156-.021-.08.016-.15.006-.156-.02-.006-.028-.098-.033-.205-.012-.107.021-.199.017-.204-.01-.006-.028-.098-.033-.205-.011-.107.02-.199.016-.204-.011-.006-.028-.12-.028-.254-.002-.134.027-.248.026-.253 0-.006-.03-.172-.018-.4.027-.226.045-.393.056-.399.027-.006-.03-.237-.004-.594.066-.357.071-.58.135-.574.165.006.03-.25.101-.672.184-.422.084-.678.154-.672.185.006.029-.169.084-.429.136-.26.051-.442.066-.448.037-.005-.027-.053-.04-.107-.03-.053.01-.093.041-.087.068.005.028-.034.058-.088.07-.054.01-.093.04-.088.068.006.027-.078.066-.185.088-.107.02-.19.06-.185.087.006.028-.056.063-.136.079-.08.016-.142.05-.136.078.005.027-.03.057-.077.067-.048.009-.11.067-.137.13-.034.073-.107.123-.214.144-.162.032-.285.15-.264.255.014.07-.4.698-.47.711-.078.016-.166.168-.148.257.008.043-.007.082-.034.087-.026.006-.04.055-.029.109s-.002.103-.029.108c-.027.006-.035.077-.02.158.017.082.008.152-.019.158-.027.005-.035.076-.02.158.017.081.008.152-.019.158-.026.005-.03.098-.01.207.022.108.018.202-.009.207-.027.005-.03.098-.01.207.022.109.018.202-.01.207-.026.006-.026.121.001.257s.027.251 0 .256c-.027.006-.027.121 0 .257s.027.251 0 .257c-.027.005-.019.157.02.355.04.198.048.35.02.355-.029.006-.016.175.03.405.045.23.057.4.029.405-.03.006-.013.19.039.454s.068.449.039.454c-.029.006-.013.191.04.455.051.263.067.448.038.454-.028.005-.016.174.03.405.045.23.058.399.03.404-.029.006-.02.158.019.356.039.197.047.35.02.355-.03.006 0 .257.078.652s.108.646.078.652c-.032.006.176 1.145.605 3.319.43 2.173.638 3.313.606 3.319-.032.006.195 1.244.664 3.615.469 2.371.73 3.603.761 3.597.027-.006.058.035.069.089.01.054.041.094.068.089.027-.005.062.057.078.139.016.081.051.144.078.138.027-.005.066.08.088.188.021.109.06.193.087.188.027-.005.057.03.066.078.01.049.068.112.13.14.06.029.119.092.128.14.01.048.04.084.066.078.027-.005.058.035.068.09.011.054.042.094.069.089.026-.006.057.034.068.089.01.054.041.094.068.089.027-.005.056.025.064.068.023.117.167.194.308.166.069-.013.13-.002.135.025.005.027.053.04.107.03.053-.01.102.003.107.03.005.028.075.037.156.02.08-.015.15-.006.156.021.005.028.097.032.204.011.107-.02.2-.016.205.011.005.027.097.032.204.011.107-.021.2-.016.205.011.005.029.172.017.4-.028.226-.045.393-.056.399-.027.005.027.097.032.204.01.107-.02.2-.016.205.012.005.027.053.04.107.03.053-.01.101.003.107.03.005.027.075.036.156.02.08-.016.15-.006.156.02.005.028.097.033.204.012.107-.021.2-.017.205.01.005.028.119.028.253.002.134-.026.248-.026.253.001.006.03.22.008.546-.056.324-.065.539-.087.545-.057.006.032.578-.063 1.617-.268 1.038-.205 1.603-.335 1.597-.367-.006-.027.034-.058.087-.069.054-.01.093-.041.088-.068-.005-.027.034-.058.088-.069.053-.01.093-.041.087-.069-.005-.027.034-.058.088-.068.053-.01.093-.042.087-.069-.005-.027.035-.058.088-.069.054-.01.093-.041.088-.068-.006-.027.056-.063.136-.078.08-.016.142-.052.136-.079-.005-.027.12-.075.283-.107.162-.032.288-.08.282-.107-.005-.027.047-.06.115-.074.088-.017.192-.129.352-.378.236-.364.366-.456.4-.284.01.054.041.094.068.09.027-.006.055.023.063.065.02.097.868.674.964.655.04-.008.07-.037.064-.064-.005-.027.034-.058.088-.069.053-.01.093-.041.087-.068-.005-.027.078-.067.185-.088.108-.021.2-.016.205.01.005.028.053.041.107.03.054-.01.102.004.107.031.006.027.076.037.156.02.08-.015.15-.006.156.021.005.027.053.04.107.03.054-.01.102.003.107.03.006.028.054.041.107.03.054-.01.102.004.107.03.006.028.098.033.205.012.107-.022.2-.017.205.01.005.028.053.041.107.03.053-.01.102.004.107.03.005.028.12.029.253.002.134-.026.248-.026.253.001.006.029.156.02.351-.018.195-.038.345-.046.35-.018.006.027.12.028.254.002.134-.027.248-.026.253 0 .006.03.172.018.4-.027.227-.045.393-.056.399-.027.006.03.204.01.496-.047.293-.058.491-.077.497-.047.006.03.205.01.497-.047.292-.058.49-.076.497-.047.006.03.22.008.545-.056.325-.065.54-.087.545-.057.006.03.237.005.595-.066.357-.07.588-.096.594-.066.006.03.237.005.594-.066.357-.07.588-.096.594-.066.006.03.253.001.643-.076s.629-.144.623-.175c-.007-.032.59-.168 1.694-.386s1.701-.354 1.695-.386c-.006-.027.12-.075.282-.107.163-.032.288-.08.283-.107-.006-.028.1-.071.233-.098.134-.026.24-.07.234-.097-.005-.028.1-.071.234-.098.134-.026.239-.07.234-.097-.006-.028.077-.067.185-.088.107-.022.19-.061.185-.088-.006-.027.1-.071.233-.098.134-.026.24-.07.234-.097-.005-.027.078-.067.185-.088.107-.021.19-.06.185-.088-.005-.027.078-.067.185-.088.107-.021.19-.06.185-.088-.005-.027.078-.067.185-.088.107-.02.19-.06.185-.088-.005-.027.078-.066.185-.088.107-.02.19-.06.185-.087-.005-.028.078-.067.185-.088.107-.022.19-.061.185-.088-.005-.027.047-.06.117-.075.078-.015.168-.092.234-.2.059-.096.142-.182.185-.19.043-.009.073-.038.068-.065-.006-.027.034-.058.087-.069.054-.01.093-.041.088-.069-.005-.027.024-.055.064-.064.085-.016.662-.869.646-.953-.006-.03.042-.13.108-.222.065-.092.112-.198.105-.235-.008-.038.024-.11.07-.159.046-.05.075-.13.066-.178-.01-.049.004-.092.031-.098.027-.005.04-.049.031-.097-.01-.049.02-.129.066-.178.046-.05.076-.13.066-.179-.01-.048.005-.092.032-.097.026-.006.035-.077.019-.158-.016-.082-.008-.153.02-.158.026-.005.04-.054.029-.108-.011-.055.002-.104.029-.109.026-.005.035-.076.02-.158-.017-.081-.008-.152.019-.157.026-.006.03-.099.01-.208-.022-.108-.018-.202.009-.207.027-.005.022-.141-.01-.306-.033-.164-.037-.3-.01-.306.032-.006-.083-.677-.328-1.913l-.376-1.903.135-.205c.074-.112.16-.21.19-.215.03-.006.104-.09.163-.186.058-.097.133-.18.165-.187.032-.006.107-.09.166-.187.058-.096.132-.18.163-.186.032-.006.142-.144.245-.305.104-.162.213-.299.243-.305.1-.02.245-.3.22-.426-.014-.07-.003-.13.024-.135.027-.006.042-.045.033-.089-.009-.043.038-.154.103-.246s.113-.198.105-.236c-.007-.037.024-.108.07-.158.064-.069.072-.147.037-.327-.026-.13-.025-.24.002-.245.027-.006.023-.142-.01-.306-.033-.165-.037-.3-.01-.306.027-.006.023-.142-.01-.306-.032-.165-.037-.3-.01-.306.027-.006.023-.142-.01-.306-.032-.165-.037-.3-.01-.306.028-.006.02-.158-.02-.356-.038-.197-.047-.35-.019-.355.028-.005.02-.158-.02-.355-.038-.198-.047-.35-.02-.356.03-.005.017-.174-.029-.405-.045-.23-.057-.399-.029-.404.028-.006.016-.175-.03-.405-.045-.23-.057-.4-.029-.405.027-.005.024-.138-.008-.295-.045-.229-.04-.303.027-.376.046-.05.078-.12.07-.158-.007-.036.058-.17.145-.295.086-.125.15-.258.144-.295-.008-.037.024-.108.07-.158.045-.05.076-.125.068-.167-.009-.043.022-.118.068-.168.045-.05.076-.125.068-.167-.009-.043.022-.118.068-.168.046-.05.075-.13.066-.178-.01-.048.004-.092.031-.097.027-.006.04-.054.03-.109-.011-.054.002-.103.029-.108.026-.006.04-.054.029-.109-.011-.054.002-.103.029-.108.027-.005.035-.076.02-.158-.017-.081-.008-.152.019-.158.026-.005.035-.076.019-.158-.016-.081-.007-.152.02-.157.026-.006.035-.077.019-.158-.016-.082-.008-.153.02-.158.026-.005.03-.098.009-.207-.022-.109-.017-.202.01-.207.03-.006-.02-.356-.137-.948-.117-.593-.204-.936-.234-.93-.03.006-.095-.22-.166-.582-.072-.363-.136-.59-.166-.584-.027.006-.07-.101-.098-.237-.027-.136-.07-.243-.097-.237-.027.005-.061-.052-.076-.128a.277.277 0 00-.139-.19c-.061-.028-.117-.08-.124-.116-.007-.035-.38-.313-.83-.618-.45-.305-.823-.578-.829-.607-.02-.101-.298-.249-.421-.224-.069.013-.129.002-.134-.025-.005-.027-.076-.037-.156-.02-.08.015-.15.006-.156-.021-.005-.027-.075-.037-.156-.02-.08.015-.15.006-.155-.021-.006-.027-.076-.037-.156-.02-.08.015-.15.006-.156-.021-.006-.027-.076-.037-.156-.02-.08.015-.15.006-.156-.021-.005-.027-.075-.037-.156-.02-.08.015-.15.006-.155-.021-.006-.027-.076-.037-.156-.02-.08.015-.15.006-.156-.021-.006-.027-.098-.032-.205-.011-.107.021-.199.016-.204-.011-.006-.027-.12-.028-.254-.001-.133.026-.247.026-.253-.002-.006-.03-.22-.007-.545.057-.325.064-.54.086-.546.056-.006-.03-.237-.004-.594.067-.357.07-.588.096-.594.066-.005-.029-.156-.02-.35.018-.195.038-.346.046-.351.018-.006-.032-.432.034-1.178.181-1.343.266-1.33.268-1.004-.212.108-.159.19-.324.18-.366-.008-.043.008-.082.034-.087.027-.005.042-.045.034-.088-.009-.043.055-.18.141-.306.087-.126.15-.263.142-.306-.008-.043.007-.083.033-.088.027-.005.04-.054.03-.108-.011-.055.002-.103.029-.109.027-.005.041-.045.033-.088-.009-.044.038-.155.103-.246.109-.154.113-.195.054-.494-.036-.184-.043-.33-.015-.335.026-.006.024-.134-.006-.287-.048-.243-.04-.296.064-.443.065-.092.111-.203.103-.247-.009-.043.006-.083.033-.088.027-.006.04-.05.031-.098-.01-.048.02-.128.066-.178.046-.05.076-.13.066-.178-.01-.049.005-.093.031-.098.027-.005.041-.05.032-.098-.01-.048.02-.128.066-.178.045-.05.076-.125.068-.167-.009-.043.022-.118.068-.168.046-.05.075-.13.066-.178-.01-.048.004-.092.031-.098.027-.005.042-.044.033-.086-.008-.043.073-.208.181-.367.108-.158.19-.318.183-.355-.007-.036.024-.107.07-.156.046-.05.076-.13.066-.179-.01-.048.005-.092.031-.097.032-.007-.071-.62-.293-1.739-.22-1.12-.324-1.732-.293-1.738.029-.006.017-.174-.03-.405-.045-.23-.057-.4-.029-.405.028-.005.02-.158-.02-.355-.038-.198-.088-.342-.116-.336-.027.005-.058-.035-.068-.09-.011-.054-.042-.094-.069-.089-.026.006-.057-.034-.068-.089-.01-.054-.041-.094-.068-.089-.027.005-.062-.057-.078-.139-.016-.081-.051-.143-.078-.138-.028.005-.08-.148-.123-.364-.072-.369-.157-.505-.295-.477-.03.006-.263-.133-.518-.309-.255-.175-.488-.314-.518-.308-.03.006-.156-.061-.28-.15-.125-.088-.261-.153-.304-.145-.042.008-.08-.007-.086-.034-.006-.027-.054-.041-.107-.03-.054.01-.102-.003-.108-.03-.006-.031-.302.008-.788.104-.487.096-.776.173-.77.204zm.722 1.603c.005.027.043.043.085.034.097-.019.358.158.377.257.008.042.037.072.064.067.027-.005.057.035.068.089.01.054.042.094.068.09.027-.006.058.034.069.088.01.055.041.095.068.09.027-.006.062.057.078.138.016.082.051.144.078.139.026-.006.062.057.078.138.016.082.051.144.078.139.026-.006.066.08.087.188.022.108.062.193.088.188.027-.006.07.101.098.237.027.136.07.243.097.237.027-.005.075.123.108.287.032.165.08.292.107.287.027-.005.062.057.078.138.016.082.051.144.078.139.027-.005.057.035.068.09.01.054.042.094.068.088.027-.005.062.057.078.139.016.081.051.144.078.138.027-.005.062.058.078.139.016.082.008.153-.02.158-.026.005-.03.098-.009.207.022.109.017.202-.01.207-.026.006-.03.099-.01.207.022.11.018.202-.009.208-.026.005-.035.076-.02.157.017.082.008.153-.019.158-.026.006-.035.077-.019.158.016.082.007.153-.02.158-.026.005-.04.054-.029.108.011.055-.002.103-.029.109-.026.005-.04.054-.029.108.01.055-.002.103-.029.109-.027.005-.04.054-.03.108.011.054-.002.103-.028.108-.027.006-.04.054-.03.109.011.054-.002.103-.029.108-.026.006-.04.054-.029.109.01.054-.002.103-.029.108-.027.005-.04.05-.031.098.01.048-.02.128-.066.178-.046.05-.076.13-.066.178.01.049-.005.092-.032.098-.026.005-.04.049-.03.097.009.049-.021.129-.067.179-.046.05-.077.12-.07.158.008.038-.04.143-.105.236-.065.092-.113.198-.105.235.007.037-.024.109-.07.158-.046.05-.077.126-.068.168.008.042-.022.117-.068.167-.046.05-.077.125-.068.168.008.042-.023.117-.069.167-.045.05-.075.13-.065.178.01.049-.005.093-.032.098-.026.005-.04.054-.029.109.01.054-.002.103-.029.108-.027.005-.04.05-.031.097.01.049-.02.129-.066.179-.046.05-.077.125-.068.167.008.043-.023.118-.069.168-.045.05-.077.12-.07.158.008.037-.04.143-.105.236-.065.091-.113.192-.107.224.006.031-.094.214-.223.405-.13.192-.228.384-.22.426.008.042-.007.081-.034.086-.026.006-.041.044-.033.085.019.097-1.17 1.898-1.265 1.917-.04.008-.07.037-.064.064.005.027-.034.058-.088.069-.053.01-.093.041-.087.068.005.028-.03.058-.077.067-.048.01-.11.068-.138.13-.027.062-.084.12-.126.127-.042.009-.099.066-.127.128-.027.062-.084.12-.126.128-.042.008-.099.066-.127.127a.27.27 0 01-.186.14c-.074.015-.13.049-.125.076.005.027-.034.058-.088.069-.053.01-.093.041-.087.068.005.027-.024.056-.065.064-.126.025-.426.528-.398.668.014.069.003.13-.024.134-.027.006-.023.142.01.306.032.165.08.292.107.287.027-.005.056.025.064.068.02.1.16.196.259.176.042-.008.08.007.086.035.006.027.054.04.108.03.053-.011.101.003.107.03.005.027.053.04.107.03.053-.01.102.003.107.03.005.027.054.04.107.03.054-.01.102.003.107.03.006.03.205.011.497-.047.292-.057.483-.116.477-.145-.005-.027.078-.067.185-.088.107-.021.19-.06.185-.088-.005-.027.078-.067.185-.088.107-.021.19-.06.185-.088-.005-.027.056-.062.137-.078.08-.016.141-.051.136-.078-.006-.027.1-.071.233-.098.134-.026.248-.026.254.002.006.032.886-.124 2.542-.452 1.655-.327 2.535-.483 2.541-.45.006.028.173.017.4-.028.227-.045.394-.057.4-.028.005.03.252.001.642-.076s.637-.106.643-.076c.005.028.14.024.302-.008.162-.032.296-.036.302-.008.005.027.075.036.156.02.08-.016.15-.006.155.02.006.028.115.03.243.004.177-.035.254-.025.322.04.063.058.146.073.274.048.101-.02.188-.015.194.013.005.027.044.042.085.034.042-.008.231.093.421.225.19.132.37.235.4.229.03-.006.093.014.139.046.069.046.135.317.372 1.517.186.941.272 1.464.24 1.47-.026.006-.036.072-.021.147a.276.276 0 01-.056.228c-.046.05-.077.125-.069.168.009.042-.022.117-.068.167-.045.05-.077.121-.07.159.008.037-.04.143-.105.235s-.113.193-.107.225c.006.032-.06.161-.146.287-.086.125-.15.263-.142.306.009.043-.006.082-.033.088-.027.005-.035.076-.02.157.017.082.008.153-.019.158-.027.006-.035.077-.02.158.017.082.008.153-.018.158-.027.005-.04.054-.03.108.011.055-.002.104-.029.109-.027.005-.04.054-.029.108.01.054-.002.103-.03.109-.028.005-.009.207.05.503.058.297.078.498.049.504-.03.006-.01.207.049.503.058.297.078.498.049.504-.029.006-.017.174.03.405.045.23.057.399.029.404-.028.006-.02.158.02.356.038.197.047.35.019.355-.027.006-.027.121 0 .257s.027.251 0 .256c-.027.006-.027.121 0 .257s.027.251 0 .257c-.026.005-.03.098-.01.207.022.109.018.202-.009.207-.027.005-.031.099-.01.207.022.109.017.202-.01.208-.026.005-.037.066-.023.136.026.133-.046.288-.143.307-.031.006-.105.09-.164.186-.059.097-.133.18-.165.187-.031.006-.124.117-.205.246-.081.129-.178.24-.214.248-.037.007-.09.063-.117.125-.028.062-.08.119-.118.126-.037.008-.115.092-.174.189-.059.096-.142.182-.185.19-.043.009-.074.038-.068.065.005.027-.024.056-.066.064-.118.024-.269.292-.241.43.014.07.003.13-.024.136-.027.005-.035.076-.02.158.017.081.008.152-.019.158-.027.005-.035.076-.02.157.017.082.008.153-.019.158-.029.006-.01.207.05.504.058.296.116.49.146.484.026-.005.057.035.068.09.01.054.041.094.068.089.027-.006.058.034.068.089.011.054.042.094.069.089.026-.005.057.035.068.089.01.054.041.094.068.09.027-.006.057.034.068.088.011.055-.002.103-.029.109-.028.005-.02.157.02.355.039.198.047.35.02.355-.029.006-.017.175.029.405.045.23.058.4.03.405-.029.006-.02.158.019.355.039.198.047.35.02.356-.027.005-.032.098-.01.207.021.109.017.202-.01.207-.026.006-.03.099-.01.207.022.11.018.202-.009.208-.027.005-.035.076-.02.157.017.082.008.153-.019.158-.027.006-.04.054-.029.109.01.054-.002.103-.03.108-.026.006-.04.054-.028.109.01.054-.003.103-.03.108-.026.005-.041.044-.033.085.018.093-.23.48-.32.498-.034.007-.086.063-.114.125a.27.27 0 01-.186.14c-.074.014-.13.049-.125.076.005.027-.034.058-.088.069-.053.01-.093.04-.087.068.005.027-.056.063-.137.078-.08.016-.142.052-.136.079.005.027-.056.062-.136.078-.08.016-.142.051-.137.078.006.027-.1.071-.233.098-.134.026-.24.07-.234.097.005.027-.078.067-.185.088-.107.021-.19.06-.185.088.005.027-.1.071-.234.098-.134.026-.239.07-.234.097.006.027-.034.058-.087.069-.054.01-.102-.003-.107-.03-.006-.028-.054-.041-.108-.03-.053.01-.101-.004-.107-.03-.005-.028-.075-.037-.156-.021-.08.016-.15.006-.155-.02-.006-.028-.14-.025-.302.008-.163.032-.297.035-.302.008-.006-.03-.221-.008-.546.056l-.535.106-.055-.275c-.034-.172-.085-.296-.138-.332-.096-.065-.632.021-.616.1.005.027-.025.056-.067.064-.088.018-.193.159-.177.238.006.03-.067.173-.163.319l-.174.264-.513.101c-.31.061-.516.082-.522.052-.006-.03-.189-.014-.448.037l-.439.087-.029-.148c-.016-.082-.007-.153.02-.158.026-.005.037-.067.023-.138-.016-.08.02-.193.093-.296.066-.092.112-.203.103-.246-.008-.043.007-.083.033-.089.027-.005.04-.054.03-.108-.011-.054.002-.103.029-.108.027-.006.024-.133-.006-.283-.048-.247-.074-.288-.256-.412-.195-.133-.363-.161-.342-.059.005.028-.078.067-.186.088-.107.021-.19.061-.184.088.005.027-.056.063-.137.078-.08.016-.141.052-.136.079.005.027-.025.056-.067.064-.043.009-.144.121-.225.25-.082.13-.173.24-.203.245-.07.014-.25.284-.235.354.017.087-.351.611-.386.55-.023-.04-.255-.012-.855.107-.791.156-.824.159-.843.064-.01-.054.002-.103.029-.109.027-.005.035-.076.02-.157-.017-.082-.008-.153.019-.158.027-.005.03-.099.01-.207-.022-.11-.018-.202.01-.208.026-.005.035-.076.018-.157-.016-.082-.05-.144-.078-.139-.026.005-.061-.057-.077-.139l-.03-.148-.34.068c-.195.038-.337.088-.332.116.006.028-.056.063-.136.079-.08.016-.142.05-.136.078.005.027-.024.056-.065.064s-.266.307-.5.663c-.234.357-.459.656-.5.664-.04.008-.07.037-.064.064.005.027-.035.058-.088.069-.065.012-.104-.014-.117-.08-.01-.054.002-.103.03-.108.026-.006.03-.099.009-.208-.022-.108-.017-.202.01-.207.026-.005.035-.076.019-.158-.016-.081-.008-.152.02-.157.028-.006.015-.175-.03-.405-.046-.23-.099-.391-.127-.386-.027.006-.056-.025-.064-.068-.047-.24-.514-.217-.679.033-.052.08-.09.174-.082.21.007.036-.025.107-.07.156-.047.05-.076.13-.067.179.01.048-.016.094-.058.102-.092.019-.271.28-.253.37.007.037-.025.107-.07.156-.046.05-.078.12-.07.158.017.09-.081.232-.175.25-.042.008-.072.037-.067.065.02.099-.15.077-.312-.041-.09-.067-.192-.117-.224-.11-.032.006-.133-.043-.224-.11s-.2-.114-.243-.106c-.043.009-.083-.007-.088-.034a.05.05 0 01.039-.059c.027-.005.04-.054.029-.108-.01-.054.002-.103.03-.108.026-.006.04-.055.028-.109-.01-.054.003-.103.03-.108.026-.006.04-.05.03-.098-.009-.048.021-.128.067-.178.046-.05.076-.125.068-.168-.009-.042.022-.117.068-.167.046-.05.077-.125.068-.167-.008-.043.022-.118.068-.168.046-.05.077-.125.068-.167-.008-.043.023-.118.068-.168.046-.05.076-.13.066-.178-.01-.048.005-.092.032-.098.026-.005.04-.054.029-.108-.01-.054.002-.103.029-.108.027-.006.04-.05.031-.098-.01-.048.02-.129.066-.178.046-.05.076-.13.066-.179-.01-.048.005-.092.032-.097.026-.005.04-.054.029-.109-.011-.054.002-.103.029-.108.027-.005.04-.05.031-.098-.01-.048.02-.128.066-.178.046-.05.076-.13.066-.178-.01-.049.005-.093.031-.098.027-.005.036-.076.02-.158-.016-.081-.008-.152.02-.157.027-.006.017-.167-.026-.383-.065-.33-.09-.384-.217-.47-.145-.099-.302-.11-.284-.019.005.028-.1.072-.234.098-.134.027-.239.07-.234.098.006.027-.05.06-.125.076a.27.27 0 00-.186.14c-.028.061-.08.117-.114.124-.077.015-.494.637-.48.714.014.07-.084.219-.153.233-.07.014-.483.64-.47.712.007.03-.042.13-.107.223-.065.092-.111.203-.103.246.009.044-.006.083-.033.089-.027.005-.04.054-.03.108.014.066-.012.105-.077.118-.054.01-.093.042-.088.069.006.027-.034.058-.087.068-.09.018-.104-.013-.176-.375-.045-.231-.058-.4-.03-.405.028-.006.04-.054.03-.109-.01-.054.002-.103.03-.108.026-.005.04-.05.03-.098-.01-.048.02-.128.066-.178.046-.05.078-.121.07-.159-.007-.037.04-.143.106-.235.065-.092.111-.203.103-.246-.009-.044.006-.083.033-.089.026-.005.04-.054.029-.108-.01-.054.002-.103.029-.109.027-.005.04-.054.03-.108-.012-.054.002-.103.028-.108.027-.006.038-.068.024-.138-.016-.08.02-.193.093-.296.073-.103.109-.217.093-.296-.014-.07-.003-.132.024-.138.026-.005.04-.054.029-.108-.01-.055.002-.103.029-.109.027-.005.042-.045.033-.088-.008-.044.038-.154.103-.246.073-.103.11-.217.094-.296-.014-.07-.004-.133.023-.138.027-.005.04-.054.029-.108-.01-.055.002-.104.03-.109.026-.005.035-.076.019-.158-.017-.081-.008-.152.019-.158.027-.005.036-.076.02-.157-.017-.082-.052-.144-.079-.139-.026.005-.057-.035-.068-.09-.017-.087-.052-.091-.311-.04-.163.032-.288.08-.283.107.006.027-.034.058-.087.069-.054.01-.093.041-.088.068.005.028-.024.056-.066.065-.04.008-.213.227-.382.486s-.332.476-.361.482c-.071.014-.169.163-.155.236.006.031-.06.16-.146.285-.086.126-.152.254-.146.286.006.031-.06.16-.146.285-.086.126-.15.264-.142.306.009.043-.006.083-.033.088-.026.005-.042.044-.033.087.02.1-.074.242-.172.262-.043.008-.073.037-.067.064a.05.05 0 01-.04.06c-.03.005-.136-.436-.292-1.226-.156-.79-.227-1.239-.195-1.245.026-.005.04-.054.029-.108s.002-.103.029-.108c.027-.006.04-.055.03-.109-.012-.054.002-.103.028-.108.027-.006.04-.054.03-.109-.011-.054.002-.103.029-.108.026-.005.04-.054.029-.109-.011-.054.002-.103.029-.108.027-.005.04-.054.03-.108-.012-.055.002-.103.028-.109.027-.005.04-.054.03-.108-.011-.055.002-.103.029-.109.026-.005.04-.049.03-.097-.009-.049.021-.129.067-.178.046-.05.076-.126.068-.168-.008-.042.022-.118.068-.167.046-.05.077-.125.068-.168-.008-.042.022-.117.068-.167.046-.05.077-.125.068-.168-.008-.042.023-.117.068-.167.046-.05.076-.13.066-.178-.01-.049.005-.093.032-.098.026-.005.04-.054.029-.108-.01-.055.002-.104.029-.109.027-.005.042-.045.033-.088-.009-.044.038-.155.103-.247.066-.092.114-.194.107-.226-.006-.033.042-.135.107-.227.066-.092.113-.198.105-.235-.007-.037.025-.109.07-.159.046-.05.076-.13.066-.178-.01-.048.005-.092.032-.097.026-.006.04-.054.029-.109-.01-.054.002-.103.029-.108.027-.006.031-.099.01-.207-.022-.11-.017-.202.01-.208.026-.005.035-.076.019-.157-.029-.145-.035-.148-.273-.1-.134.026-.24.07-.234.097.006.027-.051.061-.125.076a.27.27 0 00-.186.14c-.028.062-.09.12-.138.13-.047.009-.082.039-.076.066.005.027-.035.058-.088.069-.054.01-.093.041-.088.068.006.027-.034.058-.087.069-.054.01-.093.041-.088.069.005.027-.025.056-.066.064-.042.008-.161.147-.265.309-.104.162-.223.3-.265.309-.041.008-.071.037-.066.064.005.027-.034.058-.088.069-.053.01-.093.041-.087.069.005.027-.034.058-.088.068-.053.01-.093.042-.087.069a.05.05 0 01-.04.059c-.026.005-.057-.035-.068-.09-.01-.054.003-.102.03-.108.03-.006-.012-.316-.114-.83l-.162-.82.119-.167c.065-.091.113-.193.107-.225-.006-.032.06-.16.146-.286.086-.126.152-.255.146-.286-.006-.031.06-.16.146-.285.086-.126.151-.259.144-.296-.008-.037.024-.107.07-.157.046-.05.076-.125.068-.168-.009-.042.022-.117.068-.167.046-.05.075-.13.066-.178-.011-.055.019-.096.08-.108.053-.01.093-.041.087-.068-.005-.027.025-.056.066-.064.041-.009.118-.08.17-.16.158-.238.022-.597-.208-.552-.042.009-.08-.007-.086-.034-.006-.029-.165-.019-.378.024l-.369.072-.188.294c-.256.4-.325.405-.4.028-.032-.165-.036-.3-.01-.306.027-.005.027-.12 0-.257-.026-.136-.026-.251 0-.256.027-.006.027-.121 0-.257s-.027-.251 0-.257c.027-.005.027-.12 0-.256s-.027-.252 0-.257c.027-.005.027-.12 0-.256s-.027-.252 0-.257c.026-.005.024-.133-.006-.283-.048-.246-.04-.294.081-.478.074-.112.169-.211.21-.22.04-.007.07-.036.065-.063-.006-.027.034-.058.087-.069.054-.01.093-.041.088-.069-.005-.027.03-.057.077-.066.047-.01.11-.068.137-.13.028-.062.09-.12.137-.13.048-.01.083-.04.077-.066-.005-.027.03-.057.077-.067.048-.01.11-.068.138-.13.027-.062.084-.119.126-.127.042-.008.099-.066.127-.128.027-.062.09-.12.137-.13.048-.01.082-.04.077-.066-.005-.027.025-.057.068-.065.043-.008.126-.094.185-.19.059-.097.137-.182.174-.189.037-.007.09-.064.118-.126.028-.062.085-.12.127-.128.041-.008.098-.065.126-.127.028-.062.085-.12.127-.128.041-.008.098-.066.126-.128.028-.062.081-.118.118-.126.037-.007.115-.092.174-.188.06-.096.134-.18.166-.187.032-.006.106-.09.165-.186.06-.097.133-.18.165-.187.031-.006.124-.117.205-.246.082-.129.174-.24.205-.245.03-.007.122-.117.204-.246.081-.13.173-.24.204-.246.03-.006.14-.143.244-.305.103-.161.213-.298.243-.304.03-.006.157-.17.282-.364.126-.194.253-.358.283-.364.096-.019.168-.175.141-.306-.013-.07-.003-.132.024-.137.027-.005.042-.045.033-.089-.008-.043.038-.154.103-.246.066-.092.112-.203.103-.246-.008-.044.007-.084.033-.089.027-.005.04-.054.03-.108-.011-.055.002-.103.029-.109.026-.005.042-.044.033-.086-.018-.093.152-.36.24-.378.036-.008.088-.064.116-.126.028-.062.085-.12.127-.128.041-.008.098-.065.126-.127.028-.062.081-.119.118-.126.037-.008.115-.092.174-.189.06-.096.134-.18.166-.186.032-.007.106-.09.165-.187.06-.096.133-.18.164-.186.031-.006.141-.144.245-.305.104-.162.213-.3.243-.305.03-.006.157-.17.283-.364.125-.194.252-.358.282-.364.03-.006.14-.143.243-.304.104-.162.214-.3.244-.305.03-.006.123-.117.204-.246.082-.129.173-.24.204-.245.03-.006.14-.144.244-.305.103-.162.212-.299.24-.304.068-.014 1.34-1.941 1.326-2.01-.005-.028.033-.117.086-.196.078-.12.143-.155.365-.199l.27-.053-.049-.247c-.026-.136-.026-.251 0-.257.027-.005.038-.066.024-.135-.025-.127.12-.406.22-.426.072-.014.17-.164.155-.236-.006-.03.077-.186.185-.345.108-.158.191-.314.185-.345-.006-.03.06-.159.146-.285.086-.125.152-.252.146-.282-.016-.083.484-.817.568-.834.06-.012.06-.084.006-.36-.039-.198-.047-.35-.02-.356.027-.005.038-.066.024-.134-.015-.077.028-.204.11-.33.115-.174.17-.212.356-.248l.221-.044-.068-.346c-.04-.197-.09-.342-.117-.336-.07.014-.166-.523-.11-.62.055-.097.115-.12.129-.051zM9.25 24.035c.005.027-.1.071-.234.098-.134.026-.239.07-.233.097.005.027-.056.063-.137.078-.08.016-.141.052-.136.079.005.027-.034.058-.088.068-.053.011-.093.042-.087.069.005.027-.034.058-.088.069-.053.01-.093.041-.088.068.006.027-.034.058-.087.069-.065.013-.091.052-.078.118.01.054-.002.103-.03.108-.026.006-.035.077-.019.158.017.082.008.153-.019.158-.027.005-.031.099-.01.207.022.109.018.202-.01.207-.026.006-.03.099-.009.208.022.108.017.202-.01.207-.027.005-.022.141.01.306.033.165.037.3.01.306-.029.006-.01.207.05.503.058.297.116.49.146.485.027-.006.077.135.114.325.055.278.085.344.178.387.061.028.12.091.129.14.01.048.04.083.066.078.027-.005.057.035.068.09.01.053.042.094.068.088.027-.005.056.024.064.066.02.098.633.515.73.496.04-.008.078.008.083.035.006.027.054.04.107.03.054-.01.102.003.108.03.005.027.053.04.107.03.053-.01.101.003.107.03.006.03.188.015.448-.037.26-.051.434-.107.428-.136-.005-.027.078-.067.185-.088.107-.02.19-.06.185-.088-.005-.027.034-.058.088-.068.054-.01.093-.042.088-.069-.006-.027.05-.061.125-.076a.27.27 0 00.186-.14c.028-.062.08-.118.114-.125.035-.007.16-.158.277-.336.117-.177.207-.352.2-.387-.006-.035.025-.105.071-.155.046-.05.076-.13.066-.178-.01-.049.005-.092.031-.098.028-.005.02-.158-.02-.355-.038-.198-.047-.35-.019-.356.028-.005.02-.157-.02-.355-.039-.197-.089-.341-.117-.336-.028.006-.08-.155-.127-.386-.045-.23-.098-.39-.126-.385-.027.005-.058-.035-.069-.09-.01-.054-.041-.094-.068-.088-.027.005-.066-.08-.088-.188-.021-.11-.06-.194-.087-.188-.027.005-.057-.03-.066-.079-.01-.048-.068-.11-.13-.14-.06-.028-.116-.08-.123-.115-.007-.036-.45-.362-.45-.362-.416-.282-.45-.295-.658-.254-.12.024-.224.021-.23-.006-.005-.03-.188-.014-.447.037-.26.051-.435.107-.429.136z" fill="#2E313B"/></svg>