<svg width="26" height="20" viewBox="0 0 26 20" fill="none" xmlns="http://www.w3.org/2000/svg"><path fill-rule="evenodd" clip-rule="evenodd" d="M24.666 3.706c-9.127-.614-14.337-.602-23.332 0a1.25 1.25 0 11-.168-2.494c9.106-.61 14.428-.622 23.668 0a1.25 1.25 0 11-.168 2.494zm-14.533 8.002c-2.578.098-5.398.205-8.879.217a1.25 1.25 0 01-.008-2.5c3.291-.011 6.042-.114 8.602-.21 4.889-.184 9.083-.341 15.019.216a1.25 1.25 0 01-.234 2.489c-5.782-.543-9.727-.393-14.5-.212zM1.43 19.987c4.412-.64 7.766-.641 11.242-.48.972.045 1.962.104 2.99.165h.002c2.644.156 5.55.328 9.086.328a1.25 1.25 0 000-2.5c-3.457 0-6.25-.165-8.872-.32-1.047-.062-2.066-.123-3.09-.17-3.577-.166-7.1-.167-11.717.503a1.25 1.25 0 00.359 2.474z" fill="#E95A4A"/></svg>