<svg width="20" height="20" viewBox="0 0 20 20" fill="none" xmlns="http://www.w3.org/2000/svg"><path fill-rule="evenodd" clip-rule="evenodd" d="M2.137 18.748c2.453-2.47 4.37-4.54 6.125-6.432.549-.592 1.082-1.167 1.61-1.732 2.353 2.377 4.66 4.896 7.477 8.12a1.25 1.25 0 101.882-1.646c-2.872-3.287-5.229-5.858-7.637-8.288a83.609 83.609 0 017.07-6.557A1.25 1.25 0 1017.07.287a86.92 86.92 0 00-7.252 6.725C7.652 4.91 5.34 2.81 2.496.322A1.25 1.25 0 00.85 2.206c2.82 2.465 5.105 4.54 7.245 6.619-.593.63-1.187 1.272-1.798 1.93-1.742 1.879-3.615 3.897-5.934 6.232a1.25 1.25 0 001.774 1.762z" fill="#E95A4A"/></svg>