<svg width="28" height="28" viewBox="0 0 28 28" fill="none" xmlns="http://www.w3.org/2000/svg"><path fill-rule="evenodd" clip-rule="evenodd" d="M14.355 27.881c.339-4.622 1.081-7.347 3.331-9.651 2.256-2.203 4.916-2.961 9.365-3.31a13.828 13.828 0 000-1.031c-4.45-.349-7.11-1.107-9.365-3.31-2.25-2.304-2.992-5.029-3.33-9.652a13.713 13.713 0 00-.988-.021c-.338 4.636-1.08 7.366-3.333 9.673-2.356 2.3-5.152 3.025-9.966 3.353a13.743 13.743 0 000 .945c4.814.328 7.61 1.053 9.966 3.353 2.253 2.308 2.995 5.037 3.333 9.673a13.76 13.76 0 00.987-.022z" fill="#E95A4A"/></svg>