<svg width="26" height="14" viewBox="0 0 26 14" fill="none" xmlns="http://www.w3.org/2000/svg"><path fill-rule="evenodd" clip-rule="evenodd" d="M12.899 13.612h1.494s.451-.046.682-.278c.212-.214.205-.614.205-.614s-.029-1.874.902-2.15c.917-.273 2.095 1.811 3.344 2.612.944.607 1.661.474 1.661.474l3.339-.044s1.746-.1.918-1.384c-.068-.105-.482-.95-2.482-2.685-2.094-1.817-1.813-1.523.709-4.665 1.535-1.913 2.15-3.082 1.957-3.582-.183-.477-1.312-.35-1.312-.35l-3.76.021s-.278-.035-.485.08c-.202.113-.331.377-.331.377s-.595 1.48-1.389 2.74c-1.674 2.657-2.343 2.798-2.617 2.633-.636-.385-.477-1.545-.477-2.37 0-2.574.418-3.648-.814-3.926-.408-.092-.71-.153-1.754-.163-1.342-.013-2.477.004-3.12.298-.427.196-.757.632-.556.657.249.031.811.142 1.11.522.385.49.371 1.59.371 1.59s.222 3.031-.517 3.408c-.506.258-1.202-.27-2.694-2.68-.764-1.235-1.342-2.6-1.342-2.6s-.11-.255-.31-.391a1.603 1.603 0 00-.577-.218L1.482.945S.946.96.749 1.177c-.176.194-.014.595-.014.595s2.796 6.117 5.963 9.2c2.904 2.826 6.2 2.64 6.2 2.64z" fill="#E95A4A"/></svg>