<svg width="23" height="22" viewBox="0 0 23 22" fill="none" xmlns="http://www.w3.org/2000/svg"><path d="M11.546.101c-4.468 0-8.711-.397-10.332 3.76-.67 1.716-.572 3.945-.572 7.137 0 2.802-.09 5.434.572 7.137 1.617 4.159 5.894 3.76 10.33 3.76 4.278 0 8.69.445 10.33-3.76.671-1.734.573-3.93.573-7.137 0-4.257.235-7.005-1.831-9.068C18.524-.16 15.695.1 11.54.1h.005zm-.977 1.964c9.32-.015 10.507-1.05 9.852 13.333-.232 5.087-4.109 4.529-8.874 4.529-8.688 0-8.938-.249-8.938-8.934 0-8.785.69-8.923 7.96-8.93v.002zm6.798 1.809a1.308 1.308 0 100 2.615 1.308 1.308 0 000-2.615zm-5.82 1.528a5.598 5.598 0 00-5.6 5.596 5.597 5.597 0 005.6 5.595 5.596 5.596 0 100-11.19zm0 1.964c4.805 0 4.81 7.265 0 7.265-4.805 0-4.813-7.265 0-7.265z" fill="#E95A4A"/></svg>