<svg width="316" height="61" viewBox="0 0 316 61" fill="none" xmlns="http://www.w3.org/2000/svg"><path d="M75.706 52.216c-.838 0-1.509-.228-2.012-.683-.479-.455-.718-1.078-.718-1.868V37.09c-.024-.838.192-1.497.647-1.976.455-.503 1.077-.754 1.868-.754h12.035c.838-.024 1.496.203 1.975.682.503.455.755 1.066.755 1.833v12.789c0 .79-.252 1.413-.755 1.868-.479.455-1.137.683-1.975.683-.839 0-1.497-.228-1.976-.683-.48-.455-.719-1.078-.719-1.868V38.42h-6.43v11.245c0 .79-.24 1.413-.719 1.868-.479.455-1.138.683-1.976.683zm27.081.071c-1.868 0-3.508-.37-4.922-1.113-1.412-.767-2.502-1.832-3.269-3.198-.766-1.389-1.15-3.017-1.15-4.885 0-1.869.384-3.485 1.15-4.85a7.795 7.795 0 013.27-3.198c1.413-.742 3.053-1.113 4.921-1.113 1.868 0 3.509.37 4.922 1.113a7.792 7.792 0 013.269 3.198c.767 1.365 1.15 2.981 1.15 4.85 0 1.868-.383 3.496-1.15 4.885-.766 1.366-1.856 2.431-3.269 3.198-1.413.742-3.054 1.113-4.922 1.113zm0-4.131c2.635 0 3.952-1.688 3.952-5.065 0-1.7-.347-2.97-1.042-3.809-.67-.838-1.64-1.257-2.91-1.257-2.634 0-3.952 1.689-3.952 5.066s1.318 5.065 3.952 5.065zm15.265 4.06c-.839 0-1.509-.228-2.012-.683-.479-.455-.719-1.078-.719-1.868V37.09c-.024-.838.192-1.497.647-1.976.455-.503 1.078-.754 1.868-.754h12.035c.838-.024 1.497.203 1.976.682.503.455.754 1.066.754 1.833v12.789c0 .79-.251 1.413-.754 1.868-.479.455-1.138.683-1.976.683-.838 0-1.497-.228-1.976-.683-.479-.455-.718-1.078-.718-1.868V38.42h-6.431v11.245c0 .79-.24 1.413-.719 1.868-.479.455-1.137.683-1.975.683zm27.081.071c-1.869 0-3.509-.37-4.922-1.113-1.413-.767-2.503-1.832-3.269-3.198-.767-1.389-1.15-3.017-1.15-4.885 0-1.869.383-3.485 1.15-4.85a7.792 7.792 0 013.269-3.198c1.413-.742 3.053-1.113 4.922-1.113 1.868 0 3.508.37 4.921 1.113a7.8 7.8 0 013.27 3.198c.766 1.365 1.149 2.981 1.149 4.85 0 1.868-.383 3.496-1.149 4.885-.767 1.366-1.857 2.431-3.27 3.198-1.413.742-3.053 1.113-4.921 1.113zm0-4.131c2.634 0 3.951-1.688 3.951-5.065 0-1.7-.347-2.97-1.041-3.809-.671-.838-1.641-1.257-2.91-1.257-2.635 0-3.952 1.689-3.952 5.066s1.317 5.065 3.952 5.065zm13.396 8.658c-.767 0-1.377-.228-1.832-.683-.432-.455-.647-1.077-.647-1.868v-3.592c-.024-.838.192-1.497.647-1.976.455-.503 1.077-.755 1.868-.755h.215a13.576 13.576 0 001.222-3.951c.215-1.437.323-3.054.323-4.85V37.09c-.024-.838.192-1.497.647-1.976.455-.503 1.077-.754 1.868-.754h8.801c.839-.024 1.497.203 1.976.682.503.455.755 1.066.755 1.833V47.94h.179c.839 0 1.497.227 1.976.682.503.455.755 1.066.755 1.832v3.808c0 .79-.228 1.413-.683 1.868-.431.455-1.03.683-1.796.683-.767 0-1.377-.228-1.832-.683-.431-.455-.647-1.077-.647-1.868V52h-11.316v2.263c0 .79-.228 1.413-.683 1.868-.431.455-1.03.683-1.796.683zm10.454-18.394h-3.988v.719c0 1.964-.155 3.736-.467 5.317-.311 1.556-.766 2.73-1.365 3.52h5.82V38.42zm19.044-4.49c2.586 0 4.502.634 5.748 1.904 1.245 1.245 1.868 3.161 1.868 5.748V49.7c0 .79-.228 1.413-.683 1.868-.455.431-1.09.647-1.904.647-.766 0-1.389-.228-1.868-.683-.455-.479-.683-1.09-.683-1.832v-.252a4.23 4.23 0 01-1.796 2.084c-.838.503-1.82.754-2.946.754-1.197 0-2.287-.24-3.269-.718a5.856 5.856 0 01-2.299-2.012 5.226 5.226 0 01-.826-2.874c0-1.293.323-2.311.97-3.054.67-.742 1.736-1.28 3.197-1.616 1.461-.335 3.461-.503 5.999-.503h.935v-.647c0-1.006-.228-1.736-.683-2.191-.431-.455-1.162-.683-2.191-.683-1.03 0-2.515.36-4.455 1.078-.551.263-1.018.395-1.401.395-.527 0-.946-.18-1.258-.539-.311-.383-.467-.874-.467-1.473 0-.479.108-.874.324-1.185.215-.312.562-.599 1.041-.862.839-.456 1.857-.815 3.054-1.078a17.018 17.018 0 013.593-.395zm-1.078 14.621c1.054 0 1.904-.347 2.551-1.042.646-.718.97-1.64.97-2.766v-.61h-.611c-1.94 0-3.305.155-4.096.466-.766.312-1.149.875-1.149 1.689 0 .67.215 1.221.646 1.653.455.407 1.018.61 1.689.61zM210.62 33.93c1.509 0 2.85.395 4.023 1.185 1.198.767 2.12 1.856 2.767 3.27.67 1.389 1.006 2.993 1.006 4.813 0 1.82-.336 3.425-1.006 4.814-.647 1.365-1.557 2.42-2.731 3.162-1.173.742-2.526 1.113-4.059 1.113-1.198 0-2.287-.24-3.269-.718-.958-.503-1.701-1.198-2.228-2.084v6.79c0 .719-.239 1.293-.718 1.724-.479.432-1.114.647-1.904.647-.838 0-1.521-.227-2.048-.682-.503-.456-.754-1.054-.754-1.797V36.552c0-.766.239-1.377.718-1.832.503-.479 1.162-.718 1.976-.718.814 0 1.461.239 1.94.718.479.455.718 1.066.718 1.832v.288c.527-.91 1.282-1.617 2.264-2.12.982-.527 2.083-.79 3.305-.79zm-1.581 14.226c1.27 0 2.251-.42 2.946-1.257.695-.863 1.042-2.096 1.042-3.7 0-1.63-.347-2.887-1.042-3.773-.695-.91-1.676-1.365-2.946-1.365-1.269 0-2.251.443-2.946 1.33-.694.861-1.042 2.107-1.042 3.736 0 1.604.348 2.85 1.042 3.736.695.862 1.677 1.293 2.946 1.293zm24.26-5.892c.862.407 1.533.862 2.012 1.365.502.503 1.089 1.366 1.76 2.587l1.185 2.156c.24.455.36.898.36 1.329 0 .694-.276 1.293-.827 1.796a2.64 2.64 0 01-1.832.719c-.431 0-.85-.12-1.257-.36-.383-.24-.707-.587-.97-1.041l-2.012-3.7c-.431-.743-.862-1.27-1.293-1.582-.407-.31-1.03-.467-1.868-.467h-1.078v4.599c0 .79-.252 1.413-.755 1.868-.479.455-1.137.683-1.975.683-.839 0-1.497-.228-1.976-.683-.479-.455-.719-1.078-.719-1.868V36.552c0-.79.24-1.413.719-1.868.479-.455 1.137-.682 1.976-.682.838 0 1.496.227 1.975.682.503.455.755 1.078.755 1.868v4.563h1.078l4.67-5.964c.575-.742 1.257-1.114 2.048-1.114.598 0 1.113.216 1.544.647.431.407.647.922.647 1.545 0 .575-.227 1.162-.683 1.76l-3.484 4.275zm20.92-6.718c.216-.503.515-.874.898-1.113a2.51 2.51 0 011.294-.36 2.72 2.72 0 011.832.683c.527.431.79.958.79 1.58 0 .336-.084.671-.251 1.007l-9.664 19.83c-.24.503-.563.874-.97 1.114a2.34 2.34 0 01-1.293.395 2.623 2.623 0 01-1.761-.647c-.503-.43-.754-.958-.754-1.58 0-.383.084-.743.251-1.078l2.371-4.922-6.394-13.112a2.454 2.454 0 01-.216-.97c0-.647.276-1.198.826-1.653a3.047 3.047 0 011.94-.683 2.4 2.4 0 011.33.396c.407.24.73.61.97 1.113l4.454 9.7 4.347-9.7zm8.304 16.67c-.886 0-1.617-.288-2.191-.863-.575-.598-.863-1.34-.863-2.227 0-.886.288-1.617.863-2.191.574-.6 1.305-.899 2.191-.899.886 0 1.617.3 2.191.899.575.574.863 1.305.863 2.191 0 .886-.288 1.629-.863 2.227-.574.575-1.305.863-2.191.863zM280.19 33.93c1.509 0 2.85.395 4.023 1.185 1.198.767 2.12 1.856 2.767 3.27.67 1.389 1.005 2.993 1.005 4.813 0 1.82-.335 3.425-1.005 4.814-.647 1.365-1.557 2.42-2.731 3.162-1.173.742-2.526 1.113-4.059 1.113-1.198 0-2.288-.24-3.269-.718-.958-.503-1.701-1.198-2.228-2.084v6.79c0 .719-.239 1.293-.718 1.724-.479.432-1.114.647-1.904.647-.839 0-1.521-.227-2.048-.682-.503-.456-.755-1.054-.755-1.797V36.552c0-.766.24-1.377.719-1.832.503-.479 1.162-.718 1.976-.718.814 0 1.461.239 1.94.718.479.455.718 1.066.718 1.832v.288c.527-.91 1.282-1.617 2.264-2.12.982-.527 2.083-.79 3.305-.79zm-1.581 14.226c1.269 0 2.251-.42 2.946-1.257.694-.863 1.042-2.096 1.042-3.7 0-1.63-.348-2.887-1.042-3.773-.695-.91-1.677-1.365-2.946-1.365-1.269 0-2.251.443-2.946 1.33-.694.861-1.042 2.107-1.042 3.736 0 1.604.348 2.85 1.042 3.736.695.862 1.677 1.293 2.946 1.293zm23.757 10.67c-.791 0-1.425-.24-1.904-.719-.479-.479-.719-1.101-.719-1.868v-4.023c-1.772-.024-3.365-.42-4.778-1.186-1.413-.766-2.527-1.82-3.341-3.161-.79-1.365-1.186-2.922-1.186-4.67 0-1.749.396-3.294 1.186-4.635a8.578 8.578 0 013.341-3.197c1.413-.767 3.006-1.162 4.778-1.186v-5.28c0-.767.24-1.39.719-1.869.479-.479 1.113-.718 1.904-.718.766 0 1.389.239 1.868.718.479.479.718 1.102.718 1.868v5.281c1.773.024 3.365.42 4.778 1.186 1.437.766 2.551 1.832 3.341 3.197.815 1.341 1.222 2.886 1.222 4.634 0 1.749-.407 3.306-1.222 4.67-.79 1.342-1.904 2.396-3.341 3.162-1.413.766-3.005 1.162-4.778 1.186v4.023c0 .767-.239 1.39-.718 1.868-.479.48-1.102.719-1.868.719zm-2.587-20.765c-1.437.048-2.515.515-3.233 1.401-.695.886-1.042 2.132-1.042 3.736 0 1.605.347 2.85 1.042 3.737.718.886 1.796 1.353 3.233 1.4V38.062zm5.137 10.275c1.437-.048 2.515-.515 3.234-1.401.718-.887 1.077-2.132 1.077-3.737 0-1.604-.359-2.85-1.077-3.736-.719-.886-1.797-1.353-3.234-1.4v10.274zM75.489 28c-.443.013-.798-.101-1.064-.342-.253-.24-.38-.57-.38-.988v-6.555c-.013-.443.101-.792.342-1.045.253-.266.583-.399.988-.399h3.648c1.09 0 1.944.215 2.565.646.62.43.931 1.02.931 1.767 0 .481-.146.912-.437 1.292-.279.367-.671.633-1.178.798 1.254.33 1.881 1.058 1.881 2.185 0 .785-.336 1.425-1.007 1.919-.671.481-1.57.722-2.698.722h-3.591zm2.983-5.643c.823 0 1.235-.304 1.235-.912 0-.317-.101-.545-.304-.684-.203-.14-.52-.209-.95-.209h-1.558v1.805h1.577zm.038 3.781c.937 0 1.406-.336 1.406-1.007 0-.355-.108-.614-.323-.779-.203-.165-.526-.247-.969-.247h-1.729v2.033h1.615zm10.333 2.014c-.963 0-1.805-.196-2.527-.589a4.09 4.09 0 01-1.672-1.672c-.38-.722-.57-1.57-.57-2.546 0-.975.202-1.83.608-2.565a4.33 4.33 0 011.748-1.729c.747-.405 1.608-.608 2.584-.608.506 0 1.013.07 1.52.209.52.14.981.336 1.387.589.392.24.589.595.589 1.064 0 .33-.076.602-.228.817a.722.722 0 01-.608.304c-.165 0-.323-.025-.475-.076-.14-.063-.33-.152-.57-.266a5.599 5.599 0 00-.722-.323 1.996 1.996 0 00-.703-.114c-.71 0-1.254.228-1.634.684-.368.443-.551 1.096-.551 1.957s.183 1.52.55 1.976c.38.456.925.684 1.635.684.266 0 .5-.032.703-.095.202-.076.45-.19.74-.342.241-.114.431-.196.57-.247a1.09 1.09 0 01.457-.095c.24 0 .437.108.589.323.164.215.247.488.247.817 0 .469-.197.817-.59 1.045-.405.253-.873.45-1.405.589-.532.14-1.09.209-1.672.209zm12.561-2.926a.72.72 0 01.608.304c.165.203.247.462.247.779 0 .215-.063.418-.19.608-.126.177-.304.33-.532.456-.43.228-.931.418-1.501.57-.57.14-1.095.209-1.577.209-1.013 0-1.9-.196-2.66-.589a4.153 4.153 0 01-1.729-1.672c-.405-.735-.608-1.596-.608-2.584 0-.95.197-1.792.59-2.527a4.252 4.252 0 011.633-1.71c.697-.418 1.489-.627 2.375-.627.85 0 1.59.19 2.223.57.646.367 1.147.9 1.501 1.596.355.684.532 1.488.532 2.413 0 .279-.069.494-.209.646-.126.14-.31.209-.551.209h-5.32c.09.747.317 1.292.684 1.634.368.33.893.494 1.577.494.368 0 .697-.044.988-.133.292-.089.615-.209.969-.361a5.11 5.11 0 01.513-.19c.165-.063.311-.095.437-.095zm-3.268-4.807c-.544 0-.981.177-1.31.532-.33.342-.526.842-.59 1.501h3.667c-.038-.671-.209-1.178-.513-1.52-.29-.342-.709-.513-1.254-.513zm15.242-1.938c.444 0 .792.12 1.045.361.254.24.38.564.38.969v6.992c0 .38-.126.697-.38.95-.24.24-.551.361-.931.361-.367 0-.677-.127-.931-.38a1.29 1.29 0 01-.38-.95l.019-3.933-1.482 2.698a1.7 1.7 0 01-.551.608 1.251 1.251 0 01-.741.228c-.582 0-1.032-.279-1.349-.836l-1.463-2.679.019 3.914c0 .38-.126.697-.38.95-.253.253-.57.38-.95.38s-.696-.12-.95-.361a1.328 1.328 0 01-.361-.95v-6.878c0-.443.121-.792.361-1.045.241-.266.564-.399.969-.399.431 0 .786.063 1.064.19.279.127.532.412.76.855l2.28 4.275 2.128-4.066c.254-.469.507-.792.76-.969.254-.19.608-.285 1.064-.285z" fill="#E95A4A"/><g clip-path="url(#clip0)" fill="#E95A4A"><path d="M57.385 20.05c.39-.535.169-1.463-.585-1.595-4.16-.726-9.083.056-13.284.332-1.585.105-3.778.101-5.816.428a19.702 19.702 0 003.515-2.515c2.895-2.62 3.96-8.697.756-11.571C37.13.786 31.28 7.423 28.411 13.324c-1.73-5.29-5.971-10.7-11.045-8.109-3.55 1.812-3.546 7.146-2.018 10.125 1.262 2.458 4.119 4.206 7.067 4.948-6.677-.29-13.358.028-20.046.148-.657.012-1.17.648-1.127 1.282.211 3.188-.156 7.323 2.092 9.892a.72.72 0 00.199.16c-.188.087-.377.167-.565.26-.617.307-.333 1.175.352 1.016 3.798-.877 7.62-1.111 11.456-1.116.06.01.118.009.173 0 4.186.002 8.385.27 12.584.28.502 0 1.074-.466 1.127-.978.29-2.802 1.03-6.752.02-9.435-.028-.076-.072-.13-.11-.19.12.033.249.057.392.056a16.97 16.97 0 003.503-.411 2.83 2.83 0 00-.355.719c-.137.108-.21.285-.123.45-.18.89-.063 1.865-.035 2.788.053 1.83.207 3.652.556 5.449.176.912 1.244.955 1.55.24 3.715-.5 7.395-1.076 11.138-1.361 3.85-.294 7.452.428 11.24.555.35.011.579-.142.715-.36a.686.686 0 00.377-.477c.372-1.74.69-3.462.78-5.243.06-1.203.133-3.125-.923-3.963zm-37.823-3.928c-2.84-1.993-3.748-10.682 1.267-8.778 3.712 1.409 6.325 7.454 5.853 11.142h.011a6.403 6.403 0 00-.023.226c-2.632-.178-4.92-1.054-7.108-2.59zm8.027 5.043c-.117-.287-.368-.506-.762-.58.126-.017.256-.03.379-.053a1.05 1.05 0 00.421-.186c.013.287.11.573.284.807a1.038 1.038 0 00-.322.012zm1.582-2.107c.003-.018.01-.033.013-.052.021-.172.037-.35.047-.534.378-4.127 5.276-12.358 10.03-12.02 2.543.18 2.052 5.12 1.569 6.399-.646 1.708-2.34 2.884-3.793 3.825-2.258 1.463-5.17 2.292-7.866 2.382zm-.641 22.179c-.127-1.867-.38-3.722-.86-5.543-.139-.523-.719-.845-1.23-.817-6.208.333-13.119-.53-18.793 2.517-.606.325-.423 1.115.046 1.44-1.136 5.85-.053 11.918.351 17.8.05.724.654 1.185 1.348 1.185 5.61.002 11.175-.696 16.764-1.093a1.17 1.17 0 00.797-.366c.555.185 1.28-.087 1.403-.749.533-2.896.218-6.15.27-9.095.028-1.634.021-3.27-.075-4.9a.478.478 0 00-.02-.38zm26.266 2.473c-.347-2.221-.633-5.112-1.973-6.994.116-.06.226-.125.323-.2.453-.355.672-1.195.101-1.583-.995-.678-2.294-.503-3.453-.567-2.718-.15-5.434-.288-8.156-.321-.715-.01-1.657-.052-2.672-.052-.035-.04-.367 0-.367 0l-.335.005s-2.581.143-3.718.489a.333.333 0 00-.388.123c-1.043.383-1.888.99-2.31 1.947-1.598 3.624-.219 9.164.367 12.867.113.711.856 7.468 2.698 5.865.14.295.428.52.865.509 6.437-.165 12.823-.936 19.135-2.205.54-.108.884-.773.85-1.277-.2-2.884-.52-5.75-.967-8.607z"/></g><defs><clipPath id="clip0"><path transform="rotate(-3.664 0 3.642)" fill="#fff" d="M0 3.642h57v57H0z"/></clipPath></defs></svg>