<svg width="66" height="79" viewBox="0 0 66 79" fill="none" xmlns="http://www.w3.org/2000/svg"><path fill-rule="evenodd" clip-rule="evenodd" d="M17.49 2.232C12.972 2 9.067 5.287 8.45 9.768l-5.3 38.425a8.815 8.815 0 007.529 9.938l4.48.617-1.848 14.138 15.93-12.196.389.053 18.95 2.613a8.816 8.816 0 009.938-7.53l2.59-18.79L63.816 17.4c.618-4.481-2.252-8.701-6.664-9.7-6.074-1.376-14.36-3.152-19.673-3.884-5.312-.733-13.77-1.265-19.99-1.585z" fill="#FFDBDB"/><g clip-path="url(#clip0)"><g clip-path="url(#clip1)" fill="#E95A4A"><path d="M20.816 25.527c-.188-.258-.081-.705.282-.768 2.003-.35 4.374.027 6.396.16.764.05 1.82.048 2.801.206a9.491 9.491 0 01-1.693-1.211c-1.394-1.262-1.907-4.188-.364-5.572 2.332-2.091 5.149 1.105 6.53 3.946.833-2.548 2.876-5.152 5.319-3.905 1.71.873 1.707 3.442.971 4.876-.607 1.183-1.983 2.025-3.402 2.383 3.215-.14 6.432.013 9.653.07.316.006.563.313.543.618-.102 1.535.075 3.527-1.008 4.764a.354.354 0 01-.096.077c.09.041.182.08.272.125.297.147.16.565-.17.49-1.828-.424-3.669-.536-5.516-.538a.243.243 0 01-.083 0c-2.016 0-4.038.13-6.06.134-.242 0-.517-.224-.543-.47-.14-1.35-.496-3.252-.01-4.544.014-.037.035-.062.054-.092a.664.664 0 01-.19.027 8.174 8.174 0 01-1.686-.198c.077.11.13.226.171.347.066.052.1.137.06.216.086.429.03.899.016 1.343-.026.881-.1 1.759-.268 2.624-.085.44-.599.46-.746.115-1.789-.24-3.561-.518-5.363-.655-1.854-.141-3.589.206-5.414.267a.366.366 0 01-.343-.172.33.33 0 01-.182-.23c-.179-.839-.332-1.668-.375-2.525-.03-.58-.064-1.505.444-1.908zm18.213-1.892c1.368-.96 1.805-5.144-.61-4.227-1.787.679-3.045 3.59-2.818 5.366h-.006c.005.037.009.073.011.109 1.268-.086 2.37-.508 3.423-1.248zm-3.865 2.429a.465.465 0 01.367-.28c-.06-.008-.123-.014-.182-.025a.503.503 0 01-.203-.09.705.705 0 01-.137.389.498.498 0 01.155.006zm-.762-1.015c-.001-.008-.005-.016-.006-.025a3.574 3.574 0 01-.023-.257c-.181-1.987-2.54-5.951-4.83-5.788-1.224.086-.988 2.465-.755 3.081.311.823 1.127 1.389 1.826 1.842 1.088.705 2.49 1.104 3.788 1.147zm.308 10.681c.062-.9.184-1.793.415-2.67.066-.251.346-.407.592-.393 2.99.16 6.317-.255 9.05 1.212.292.156.203.537-.022.694.547 2.816.025 5.738-.17 8.57-.023.35-.314.571-.648.572-2.702 0-5.382-.336-8.073-.527a.563.563 0 01-.384-.176c-.267.089-.617-.042-.675-.36-.257-1.395-.106-2.963-.13-4.38-.014-.788-.01-1.576.035-2.36a.23.23 0 01.01-.183zm-12.648 1.19c.168-1.07.305-2.462.95-3.368a1.004 1.004 0 01-.155-.096c-.218-.171-.323-.575-.049-.762.48-.327 1.105-.243 1.663-.273a91.736 91.736 0 013.927-.155c.345-.004.799-.025 1.288-.025.016-.02.176 0 .176 0l.161.002s1.243.07 1.79.236a.16.16 0 01.188.06c.502.184.908.476 1.112.937.77 1.745.105 4.413-.177 6.196-.054.342-.412 3.596-1.3 2.824a.425.425 0 01-.415.245 53.76 53.76 0 01-9.215-1.061c-.26-.053-.426-.373-.409-.616a48.45 48.45 0 01.465-4.144z"/></g></g><defs><clipPath id="clip0"><path transform="matrix(-1 0 0 1 48.45 15.872)" fill="#fff" d="M0 0h28.935v28.935H0z"/></clipPath><clipPath id="clip1"><path transform="scale(-1 1) rotate(-3.664 251.326 766.246)" fill="#fff" d="M0 0h27.448v27.448H0z"/></clipPath></defs></svg>