<svg width="36" height="33" viewBox="0 0 36 33" fill="none" xmlns="http://www.w3.org/2000/svg"><rect x=".294" y=".112" width="35" height="32.742" rx="5" fill="#48729E"/><path fill-rule="evenodd" clip-rule="evenodd" d="M17.588 21.523h1.147s.346-.033.524-.2c.162-.154.157-.442.157-.442s-.022-1.349.692-1.548c.704-.196 1.609 1.304 2.567 1.88.725.437 1.276.342 1.276.342l2.563-.032s1.341-.072.705-.996c-.052-.076-.37-.684-1.905-1.933-1.608-1.307-1.392-1.096.544-3.357 1.179-1.377 1.65-2.218 1.503-2.578-.14-.344-1.008-.253-1.008-.253l-2.886.016s-.214-.026-.372.057c-.156.082-.255.272-.255.272s-.457 1.066-1.066 1.972c-1.285 1.912-1.8 2.014-2.01 1.895-.488-.277-.366-1.112-.366-1.705 0-1.854.321-2.627-.624-2.827-.314-.066-.545-.11-1.348-.117-1.03-.01-1.9.003-2.394.215-.329.14-.582.454-.428.473.191.022.623.102.852.375.296.352.286 1.144.286 1.144s.17 2.182-.397 2.453c-.39.186-.923-.193-2.069-1.929a15.324 15.324 0 01-1.03-1.87s-.085-.184-.238-.283a1.3 1.3 0 00-.443-.157l-2.743.016s-.411.01-.562.167c-.135.14-.011.428-.011.428s2.147 4.403 4.578 6.621c2.23 2.035 4.76 1.901 4.76 1.901z" fill="#fff"/></svg>